<svg width="323" height="323" xmlns="http://www.w3.org/2000/svg" preserveAspectRatio="xMidYMid meet">
 <metadata>Created by potrace 1.11, written by Peter Selinger 2001-2013</metadata>

 <g>
  <title>background</title>
  <rect fill="none" id="canvas_background" height="402" width="582" y="-1" x="-1"/>
 </g>
 <g>
  <title>Layer 1</title>
  <path fill="#ff7f00" id="svg_2" d="m149.600006,84.199997c-0.800003,0.5 -1.300003,1.5 -1,2.199997c0.699997,1.800003 -3.400009,4.600006 -6.800003,4.600006c-1.5,0 -3.300003,-0.800003 -4,-1.800003c-2,-2.800003 -5.199997,-4.199997 -9.800003,-4.199997c-3.199997,0 -5.099998,0.799995 -8.299995,3.299995c-2.300003,1.900002 -5.600006,4.200005 -7.400002,5.200005c-3.099998,1.799995 -3.300003,1.799995 -8.800003,0l-5.5,-1.900002l-1.599998,2.199997c-1.300003,1.800003 -1.800003,2 -3.400002,0.900002c-1.599998,-0.900002 -2.400002,-0.900002 -3.799995,0.099998c-3.200005,2.300003 -6.700005,3.5 -9.900002,3.400002c-2,0 -3.300003,0.5 -3.300003,1.300003c0,0.799995 -0.900002,1.099998 -2.5,0.699997c-2,-0.300003 -2.400002,-0.099998 -1.900002,1.199997c0.400002,1.100006 0.100006,1.600006 -1.199997,1.600006c-1.699997,0 -1.599998,0.299995 0.5,1.899994c1.599998,1.200005 2,2.100006 1.199997,2.5c-1.599998,1 -1.399994,2.600006 0.5,2.600006c0.800003,0 1.200005,0.5 0.800003,1.099998c-0.400002,0.699997 -2.099998,0.900002 -4.599998,0.5c-3.300003,-0.599998 -4,-0.300003 -4.700005,1.5c-0.599998,1.900002 -0.899998,2 -1.399998,0.599998c-0.599998,-1.699997 -5,-2.300003 -8.099998,-1.099998c-2.100002,0.799995 -2,2.400002 0.199997,2.5c0.900002,0 0.100002,0.5 -1.799999,1.099998c-1.899998,0.5 -5.599998,0.800003 -8.299999,0.400002c-4.700001,-0.5 -4.700001,-0.5 -4.099998,2.099998c0.699997,2.5 0.5,2.599998 -2.200001,2c-3.5,-0.699997 -4.299999,-0.199997 -6.700001,3.5c-1,1.599998 -2.6,2.800003 -3.6,2.800003c-1,0 -2.1,0.899994 -2.4,2c-0.300001,1.399994 -1,1.800003 -2.200001,1.399994c-1.1,-0.5 -1.799999,0 -2.199999,1.5c-0.300001,1.199997 -1.300001,2.100006 -2.400002,2.100006c-2.9,0 -3.4,2.099991 -0.9,4c2.9,2.199997 2.1,5.099991 -1.1,4.300003c-2.499999,-0.700012 -2.099999,0.5 1.400002,4.399994c1.5,1.699997 1.699999,2.600006 0.9,3.600006c-0.700001,0.799988 -0.9,1.699997 -0.5,2c1.1,1.199997 8.699999,0.699997 13.799999,-0.900009c2.799999,-0.800003 6.400002,-1.399994 8.200001,-1.199997c3.900002,0.300003 5,-0.600006 3.299999,-2.699997c-1.799999,-2.199997 0.200001,-4.400009 2.400002,-2.600006c0.799999,0.699997 2.099998,1.100006 2.799999,0.900009c0.700001,-0.200012 2,0.299988 2.799999,1c0.799999,0.699997 2.400002,1.899994 3.400002,2.599991c2.399998,1.600006 1.299999,3.600006 -2,3.600006c-3.400002,0 -3,1.5 1.200001,4l3.5,2.199997l6.499996,-3.199997c3.600006,-1.699997 6.800003,-3 7.100006,-2.699997c0.199997,0.299988 -0.5,1.099991 -1.700005,1.699997c-1.799995,1 -1.900002,1.399994 -0.900002,2.699997c3,3.5 15,-0.699997 15.700005,-5.600006c0.400002,-2.599991 3.400002,-4.299988 6.900002,-3.899994c3.799995,0.399994 3.899994,2.399994 0.299995,3.600006c-3.400002,1.199997 -4,3.199997 -1.099998,3.199997c3,0 3.400002,1.699997 0.900002,3.5c-2.300003,1.599991 -2.300003,1.599991 -0.400002,3c2.699997,2.099991 5.300003,1.899994 7.300003,-0.5c1,-1.100006 2.099998,-2 2.5,-2c0.5,0 0.799995,0.899994 0.799995,2c0,2.199997 2,2.599991 5,1c1.200005,-0.699997 1.700005,-1.600006 1.300003,-2.699997c-0.5,-1.300003 -0.099998,-1.5 2.900002,-0.900009c2.599998,0.5 4.599998,0 8.199997,-1.899994c5.199997,-2.800003 9.400002,-3.600006 6.099998,-1.199997c-2.5,1.899994 -1.099998,3.699997 3,3.699997c5.900009,0 12.5,-3.699997 12.5,-7.100006c0,-2.300003 3.300003,-4.099991 6.600006,-3.699997c3.399994,0.399994 3.399994,2 0.099991,3.600006c-3.099991,1.5 -3.599991,3.199997 -0.799988,3.199997c3,0 3.399994,1.699997 0.899994,3.5c-2.300003,1.599991 -2.300003,1.599991 -0.399994,3c2.699997,2 5,1.899994 7.099991,-0.5c1,-1.100006 2.199997,-2 2.699997,-2c0.400009,0 0.800003,0.899994 0.800003,2c0,1.099991 0.600006,2 1.400009,2c2.799988,0 4.599991,-1.199997 4.599991,-3.100006c0,-2.5 2,-2.399994 2.699997,0.100006c0.5,1.699997 1.300003,1.899994 8.200012,1.699997c4.199997,-0.100006 14.5,-0.100006 22.899994,0l15.199997,0.300003l4.699997,4.199997c3.100006,2.899994 5.700012,6.699997 7.900009,11.600006c3.5,7.599991 6.399994,9.899994 11,8.799988c3.300003,-0.899994 5.399994,0.300003 5.399994,3c0,3.300003 1.600006,3.700012 7.5,1.900009c2.800003,-0.800003 6.600006,-1.5 8.700012,-1.5c3.399994,0 3.799988,0.300003 5.799988,4.699997c1.200012,2.699997 2.800018,6.199997 3.600006,7.800003c1.399994,2.899994 1.299988,3.399994 -1.100006,7.699997c-1.399994,2.5 -3.199982,5.199997 -4,5.800003c-0.899994,0.800003 -1.5,3 -1.5,6c0,8.300003 -6.300003,11.199997 -22,10c-7.300003,-0.5 -10.399994,-0.399994 -13.5,0.699997c-2.199997,0.800003 -7.599991,1.800003 -12,2.300003c-4.699997,0.399994 13.400009,0.800003 44.399994,0.899994l52.400024,0.100006l-2.300018,-2c-1.299988,-1.100006 -3.100006,-2 -4.100006,-2c-3.299988,0 -4.899994,-3.800003 -4.199982,-10.199997c0.799988,-7.700012 -0.899994,-9.800003 -7.800018,-9.800003c-2.699982,0 -5.099976,-0.5 -5.599976,-1.300003c-0.400024,-0.600006 -1,-4.600006 -1.300018,-8.699997l-0.5,-7.5l-3.100006,-0.300003c-2.699982,-0.300003 -3.399994,-1.100006 -6,-6.399994c-3.599976,-7.5 -6.099976,-8.800003 -17.399994,-8.800003c-6.099991,0 -8,-0.300003 -8,-1.400009c0,-0.699997 4.699997,-6.199997 10.399994,-12.199997c7.400024,-7.899994 11.800018,-11.599991 15.5,-13.399994c4.900024,-2.300003 5.5,-2.300003 10.900024,-1c7.299988,1.699997 17.199982,2.399994 17.199982,1.300003c0,-0.5 -0.5,-1.400009 -1.199982,-2.100006c-0.900024,-0.899994 -0.900024,-1.800003 0,-3.699997c1.599976,-3.5 1.5,-3.800003 -0.800018,-3.199997c-1.5,0.399994 -2,0 -2,-1.400009c0,-1.199997 1.5,-2.599991 4.200012,-4c3.799988,-1.899994 4,-2.300003 2.399994,-3.399994c-0.899994,-0.699997 -2.5,-1.100006 -3.600006,-0.800003c-1.399994,0.399994 -4,-1.5 -9.199982,-6.599998c-6.5,-6.400002 -7.600006,-7.099998 -10.200012,-6.5c-2.700012,0.599998 -2.799988,0.5 -2.200012,-1.900002c0.600006,-2.599998 0.600006,-2.599998 -4.599976,-2c-2.900024,0.300003 -5.5,1 -5.600006,1.5c-0.800018,1.900002 -3.5,3.800003 -5.399994,3.800003c-1.100006,0 -2.700012,0.799995 -3.400024,1.699997c-1.199982,1.699997 -1.299988,1.599998 -1.399994,-0.400002c0,-1.299995 -1.100006,-2.900002 -3,-4c-2.099991,-1.199997 -3,-2.5 -3,-4.299995c0,-1.5 -0.599991,-3.5 -1.399994,-4.5c-1.199997,-1.700005 -1.699997,-1.800003 -4.100006,-0.700005c-2.199997,1 -3,1 -4.300003,0c-1.199997,-1 -1.599991,-1 -1.899994,0c-0.699997,2 -2.300003,0.300003 -2.300003,-2.400002c0,-2.099998 -0.300003,-2.299995 -1.899994,-1.399994c-2.900009,1.5 -3.100006,1.299995 -3.100006,-2.600006l0,-3.5l-4.199997,0.300003c-4.800003,0.300003 -6.600006,3.099998 -2.899994,4.300003c2.699997,0.799995 2.699997,2.5 0.099991,2.5c-1.099991,0 -2,-0.600006 -2,-1.400002c0,-0.700005 -0.699997,-1.900002 -1.5,-2.599998c-2.899994,-2.400002 -1.800003,-4 3,-4c5.900009,0 5.900009,-1.800003 0.300003,-7.5c-2.399994,-2.300003 -5.100006,-5.100006 -6.100006,-6.200005c-1.399994,-1.699997 -2.899994,-2 -9,-1.799995c-7.799988,0.099998 -10.099991,0.899994 -9.299988,3.099998c0.699997,1.900002 -3.300003,4.400002 -7.200012,4.400002c-2.5,0 -3.5,-0.5 -3.899994,-1.900002c-0.600006,-2.400002 -4.399994,-4.099998 -9.399994,-4.099998c-3,0 -5,0.799995 -8.100006,3.199997l-4,3.300003l-1.600006,-2.100006c-1,-1.199997 -2.199997,-3 -2.699997,-3.899994c-0.899994,-1.400002 -2.599991,-1.800003 -8.699997,-2c-4.199997,-0.100006 -8.300003,0.199997 -9.199997,0.699997zm69.399994,18.300003c2.5,3 -0.599991,4.399994 -5.699997,2.399994l-2.800003,-1.099998l3,-1.299995c3.900009,-1.700005 4,-1.700005 5.5,0zm1.800003,19.199997c-0.199997,1.300003 -1.399994,1.900002 -4.100006,2.099998c-4.099991,0.400002 -5,-1.299995 -1.399994,-2.799995c3.699997,-1.5 5.899994,-1.200005 5.5,0.699997zm-15.399994,15.800003c0.899994,1.800003 1.599991,4.399994 1.599991,5.699997c-0.099991,2.100006 -0.199997,2.199997 -1.399994,0.5c-2.900009,-3.699997 -2.400009,-1.399994 1,5.399994c2.699997,5.400009 3.300003,7.400009 2.399994,8.300003c-0.899994,0.800003 -1.800003,0.199997 -3.800003,-2.300003c-1.5,-1.899994 -4.399994,-5.5 -6.399994,-7.899994c-3.899994,-4.399994 -4.600006,-6.600006 -2.800003,-7.699997c0.600006,-0.400009 0.800003,-1 0.5,-1.5c-0.599991,-1 1.400009,-5 3,-6.199997c1.300003,-0.900009 4,1.699997 5.900009,5.699997zm29.299988,-1.400009c0.300003,3.5 1.700012,4.200012 5.900009,2.900009c3.699997,-1.300003 3.899994,-1.199997 6.800003,2.199997c3.899994,4.399994 5.799988,5.100006 10.699997,3.699997c3,-1 4.200012,-0.899994 5.399994,0.100006c1.200012,1 1.899994,1 2.700012,0.199997c1.399994,-1.399994 4.799988,-1.600006 4.799988,-0.399994c0,0.399994 -2.299988,3 -5.100006,5.699997c-2.799988,2.699997 -6.899994,7.599991 -9.199982,10.899994c-4.600006,6.900009 -6.600006,9.100006 -7.300003,8.300003c-0.300003,-0.300003 -0.100006,-1.399994 0.5,-2.5c1.899994,-3.5 1.199997,-3.399994 -3.5,0.399994l-4.600006,3.800003l-2.699997,-3.300003c-1.400009,-1.799988 -5,-5.699997 -7.800003,-8.599991c-4.399994,-4.400009 -5.300003,-5.900009 -5.300003,-8.800003c0,-2.699997 0.699997,-4.100006 3,-6c2.400009,-2.100006 3,-3.300003 3,-6.600006c0,-4.299988 2.400009,-6 2.699997,-2zm-20.299988,11.700012c-0.400009,3.699997 -0.800003,6.899994 -1,7c-0.100006,0.199997 -1,-0.800003 -2,-2.300003c-1.900009,-2.900009 -3.100006,-12.300003 -1.900009,-15.199997c0.600006,-1.600006 0.900009,-1.5 3.100006,1c2.199997,2.599991 2.399994,3.399994 1.800003,9.5zm71.400009,-9c0.399994,1.399994 -3.400024,1.599991 -4.200012,0.299988c-0.600006,-1 1.299988,-2.099991 2.799988,-1.699997c0.600006,0.100006 1.200012,0.800003 1.400024,1.400009zm-63.900009,0.599991c0.899994,1.100006 1,2.5 0.199997,5.300003c-0.600006,2.100006 -1.100006,6 -1.100006,8.800003l0,4.899994l-2.199997,-2.099991c-1.600006,-1.600006 -2.300003,-3.800003 -2.600006,-8.100006c-0.599991,-8.399994 2.300003,-12.899994 5.700012,-8.800003zm-25.100006,8.5c4.5,5.400009 5,6.400009 2.699997,5.5c-1.699997,-0.699997 -2.099991,1.100006 -0.5,2.100006c1.699997,1 1.100006,2.5 -1,2.5c-1.199997,0 -3,-1.600006 -4.699997,-4.100006c-1.600006,-2.300003 -3.199997,-4.899994 -3.800003,-5.699997c-0.699997,-1 -0.599991,-1.600006 0.300003,-1.899994c0.600006,-0.300003 1.199997,-1.100006 1.199997,-1.900009c0,-2.5 1.600006,-1.5 5.800003,3.5zm82.000015,-2.099991c0.199982,0.699997 -0.5,1.5 -1.5,1.899994c-1,0.399994 -4.600006,2.899994 -8,5.600006c-8.400024,6.5 -8,4.399994 0.5,-3.200012c6.5,-5.899994 8.199982,-6.699997 9,-4.299988zm-87.800018,9.899994c0,1.300003 -0.199997,2.300003 -0.5,2.300003c-2.099991,0 -6.599991,-3.5 -8.899994,-7c-2.5,-3.800003 -2.600006,-4.100006 -0.699997,-3.5c1.099991,0.300003 2.799988,0.199997 3.799988,-0.400009c1.400009,-0.699997 2.200012,-0.199997 4,2.700012c1.200012,2.099991 2.300003,4.699997 2.300003,5.899994zm-14.300003,-6.100006c1.400009,1.400009 2.300003,2.700012 2.100006,3c-1,0.900009 -11.800003,-1.899994 -11.800003,-3.199997c0,-3.199997 6.400009,-3.099991 9.699997,0.199997zm3,5.5c1.700012,0.600006 3.700012,1.700012 4.300003,2.5c2,2.300003 -11.099991,2 -14,-0.399994c-4.599991,-3.800003 0.5,-4.800003 9.699997,-2.100006zm54.5,11.100006c-0.599991,0.600006 0.300003,2.199997 2.600006,4.300003c3.399994,3.099991 3.600006,3.5 2.300003,5.800003c-1.100006,2 -1.800003,2.399994 -3.5,1.799988c-3,-1.199997 -7.300003,-8.799988 -8.199997,-14.5l-0.700012,-5l4.200012,3.300003c2.699997,2.199997 3.899994,3.699997 3.299988,4.300003z"/>
 </g>
</svg>