<svg id="svg" version="1.1" xmlns="http://www.w3.org/2000/svg" xmlns:xlink="http://www.w3.org/1999/xlink" width="400" height="400" viewBox="0, 0, 400,400"><g id="svgg"><path id="path0" d="M155.929 31.192 C 150.023 32.975,149.071 40.436,154.327 43.754 C 155.795 44.681,156.816 44.913,165.200 46.231 C 167.290 46.560,170.710 47.174,172.800 47.597 C 174.890 48.019,181.505 49.189,187.500 50.195 C 193.495 51.202,198.625 52.109,198.900 52.210 C 199.175 52.312,200.480 52.557,201.800 52.755 C 203.120 52.953,206.810 53.575,210.000 54.137 C 213.190 54.698,217.420 55.438,219.400 55.780 C 222.649 56.342,225.387 56.845,231.400 57.987 C 232.500 58.196,234.480 58.542,235.800 58.756 C 239.368 59.333,247.384 60.757,250.800 61.420 C 253.503 61.945,261.587 63.349,271.400 64.998 C 273.380 65.331,276.260 65.858,277.800 66.169 C 279.340 66.480,282.940 67.124,285.800 67.599 C 293.748 68.919,299.590 69.947,306.445 71.230 C 314.950 72.823,316.854 72.523,319.009 69.252 C 322.255 64.323,319.404 59.306,312.737 58.217 C 310.902 57.917,305.350 56.923,300.400 56.007 C 295.450 55.091,289.780 54.101,287.800 53.807 C 285.820 53.513,282.400 52.902,280.200 52.450 C 278.000 51.999,271.790 50.890,266.400 49.988 C 261.010 49.085,255.790 48.166,254.800 47.945 C 253.810 47.724,247.780 46.665,241.400 45.591 C 235.020 44.517,227.370 43.197,224.400 42.658 C 221.430 42.119,216.210 41.198,212.800 40.613 C 209.390 40.028,204.800 39.208,202.600 38.790 C 200.400 38.372,197.340 37.852,195.800 37.635 C 194.260 37.418,190.030 36.690,186.400 36.019 C 182.770 35.347,177.640 34.424,175.000 33.968 C 172.360 33.512,167.410 32.613,164.000 31.969 C 157.274 30.700,157.490 30.721,155.929 31.192 M176.474 69.981 C 171.594 71.191,170.109 78.436,174.047 81.818 C 175.114 82.734,177.011 83.433,179.400 83.791 C 182.143 84.202,190.113 85.605,192.000 86.008 C 192.990 86.220,197.040 86.940,201.000 87.608 C 204.960 88.275,210.540 89.251,213.400 89.775 C 216.260 90.300,219.770 90.921,221.200 91.155 C 224.471 91.691,233.530 93.311,241.600 94.803 C 245.010 95.434,248.610 96.061,249.600 96.198 C 250.590 96.335,252.840 96.727,254.600 97.070 C 256.360 97.413,259.240 97.928,261.000 98.215 C 262.760 98.501,267.332 99.290,271.159 99.968 C 281.897 101.869,284.421 101.479,286.392 97.616 C 289.002 92.499,286.004 88.585,278.400 87.183 C 275.870 86.717,271.010 85.820,267.600 85.189 C 264.190 84.558,260.050 83.837,258.400 83.587 C 256.750 83.337,254.590 82.971,253.600 82.773 C 252.610 82.574,249.550 82.027,246.800 81.557 C 244.050 81.087,240.450 80.456,238.800 80.155 C 237.150 79.854,234.090 79.339,232.000 79.009 C 229.910 78.680,227.390 78.228,226.400 78.005 C 225.410 77.783,223.070 77.348,221.200 77.039 C 217.166 76.374,205.191 74.298,199.000 73.192 C 196.580 72.759,192.440 72.034,189.800 71.579 C 187.160 71.125,184.190 70.590,183.200 70.391 C 180.147 69.777,177.858 69.638,176.474 69.981 M107.200 73.600 C 107.200 74.356,106.933 74.400,102.400 74.400 C 97.867 74.400,97.600 74.444,97.600 75.200 C 97.600 75.943,97.333 76.000,93.833 76.000 C 89.730 76.000,88.800 76.193,88.800 77.043 C 88.800 77.484,87.923 77.600,84.600 77.600 C 80.667 77.600,80.400 77.651,80.400 78.400 C 80.400 79.154,80.133 79.200,75.800 79.200 C 71.978 79.200,71.200 79.301,71.200 79.800 C 71.200 80.293,70.496 80.400,67.262 80.400 C 63.832 80.400,63.231 80.503,62.600 81.200 C 61.969 81.897,61.368 82.000,57.938 82.000 C 54.267 82.000,54.000 82.054,54.000 82.800 C 54.000 83.554,53.733 83.600,49.400 83.600 C 45.067 83.600,44.800 83.646,44.800 84.400 C 44.800 85.147,44.533 85.200,40.800 85.200 C 37.067 85.200,36.800 85.253,36.800 86.000 C 36.800 86.707,36.533 86.800,34.496 86.800 C 32.626 86.800,32.098 86.950,31.693 87.600 C 31.314 88.207,30.760 88.400,29.397 88.400 C 27.867 88.400,27.600 88.519,27.600 89.200 C 27.600 89.867,27.333 90.000,26.000 90.000 C 24.667 90.000,24.400 90.133,24.400 90.800 C 24.400 91.300,24.133 91.600,23.688 91.600 C 23.297 91.600,22.717 91.960,22.400 92.400 C 22.061 92.870,21.365 93.200,20.712 93.200 C 19.867 93.200,19.600 93.392,19.600 94.000 C 19.600 94.533,19.333 94.800,18.800 94.800 C 18.356 94.800,18.000 95.067,18.000 95.400 C 18.000 95.733,17.644 96.000,17.200 96.000 C 16.667 96.000,16.400 96.267,16.400 96.800 C 16.400 97.240,16.137 97.600,15.815 97.600 C 14.963 97.600,12.000 100.731,12.000 101.632 C 12.000 102.133,11.722 102.400,11.200 102.400 C 10.667 102.400,10.400 102.667,10.400 103.200 C 10.400 103.733,10.133 104.000,9.600 104.000 C 9.067 104.000,8.800 104.267,8.800 104.800 C 8.800 105.333,8.533 105.600,8.000 105.600 C 7.333 105.600,7.200 105.867,7.200 107.200 C 7.200 108.533,7.067 108.800,6.400 108.800 C 5.861 108.800,5.600 109.067,5.600 109.617 C 5.600 110.066,5.240 110.820,4.800 111.292 C 4.360 111.764,4.000 112.645,4.000 113.248 C 4.000 113.995,3.744 114.427,3.200 114.600 C 2.579 114.797,2.400 115.205,2.400 116.427 C 2.400 117.733,2.264 118.000,1.600 118.000 C 0.867 118.000,0.800 118.267,0.800 121.200 C 0.800 123.067,0.633 124.400,0.400 124.400 C 0.143 124.400,0.000 128.267,0.000 135.200 C 0.000 142.133,0.143 146.000,0.400 146.000 C 0.640 146.000,0.800 147.579,0.800 149.938 C 0.800 153.368,0.903 153.969,1.600 154.600 C 2.297 155.231,2.400 155.832,2.400 159.262 C 2.400 162.933,2.454 163.200,3.200 163.200 C 3.956 163.200,4.000 163.467,4.000 168.000 C 4.000 172.533,4.044 172.800,4.800 172.800 C 5.544 172.800,5.600 173.067,5.600 176.600 C 5.600 179.867,5.712 180.512,6.400 181.200 C 7.093 181.893,7.200 182.533,7.200 186.000 C 7.200 189.733,7.253 190.000,8.000 190.000 C 8.754 190.000,8.800 190.267,8.800 194.600 C 8.800 198.933,8.846 199.200,9.600 199.200 C 10.354 199.200,10.400 199.467,10.400 203.800 C 10.400 208.133,10.446 208.400,11.200 208.400 C 11.947 208.400,12.000 208.667,12.000 212.400 C 12.000 215.689,12.107 216.400,12.600 216.400 C 13.099 216.400,13.200 217.178,13.200 221.000 C 13.200 225.333,13.246 225.600,14.000 225.600 C 14.747 225.600,14.800 225.867,14.800 229.600 C 14.800 233.067,14.907 233.707,15.600 234.400 C 16.288 235.088,16.400 235.733,16.400 239.000 C 16.400 242.533,16.456 242.800,17.200 242.800 C 17.956 242.800,18.000 243.067,18.000 247.600 C 18.000 252.057,18.055 252.400,18.764 252.400 C 19.458 252.400,19.539 252.782,19.664 256.633 C 19.775 260.100,19.927 260.958,20.500 261.377 C 21.083 261.803,21.200 262.533,21.200 265.744 C 21.200 269.333,21.255 269.600,22.000 269.600 C 22.754 269.600,22.800 269.867,22.800 274.200 C 22.800 278.533,22.846 278.800,23.600 278.800 C 24.356 278.800,24.400 279.067,24.400 283.600 C 24.400 288.133,24.444 288.400,25.200 288.400 C 25.943 288.400,26.000 288.667,26.000 292.112 C 26.000 295.365,26.099 295.895,26.800 296.400 C 27.515 296.915,27.600 297.435,27.600 301.288 C 27.600 305.333,27.649 305.600,28.400 305.600 C 29.154 305.600,29.200 305.867,29.200 310.200 C 29.200 314.022,29.301 314.800,29.800 314.800 C 30.293 314.800,30.400 315.506,30.400 318.753 C 30.400 322.370,30.468 322.724,31.200 322.916 C 31.939 323.109,32.000 323.462,32.000 327.563 C 32.000 331.733,32.048 332.000,32.800 332.000 C 33.556 332.000,33.600 332.267,33.600 336.800 C 33.600 341.333,33.644 341.600,34.400 341.600 C 35.144 341.600,35.200 341.867,35.200 345.397 C 35.200 348.760,35.291 349.250,36.000 349.693 C 36.716 350.140,36.800 350.626,36.800 354.296 C 36.800 358.133,36.852 358.400,37.600 358.400 C 38.347 358.400,38.400 358.667,38.400 362.400 C 38.400 366.133,38.453 366.400,39.200 366.400 C 39.911 366.400,40.000 366.667,40.000 368.800 C 40.000 370.933,40.089 371.200,40.800 371.200 C 41.467 371.200,41.600 371.467,41.600 372.800 C 41.600 374.133,41.733 374.400,42.400 374.400 C 43.048 374.400,43.200 374.667,43.200 375.800 C 43.200 376.933,43.352 377.200,44.000 377.200 C 44.576 377.200,44.800 377.467,44.800 378.151 C 44.800 378.674,45.070 379.326,45.400 379.600 C 45.730 379.874,46.000 380.526,46.000 381.049 C 46.000 381.733,46.224 382.000,46.800 382.000 C 47.333 382.000,47.600 382.267,47.600 382.800 C 47.600 383.333,47.867 383.600,48.400 383.600 C 48.933 383.600,49.200 383.867,49.200 384.400 C 49.200 384.933,49.467 385.200,50.000 385.200 C 50.533 385.200,50.800 385.467,50.800 386.000 C 50.800 386.533,51.067 386.800,51.600 386.800 C 52.133 386.800,52.400 387.067,52.400 387.600 C 52.400 388.133,52.667 388.400,53.200 388.400 C 53.733 388.400,54.000 388.667,54.000 389.200 C 54.000 389.733,54.267 390.000,54.800 390.000 C 55.333 390.000,55.600 390.267,55.600 390.800 C 55.600 391.333,55.867 391.600,56.400 391.600 C 56.844 391.600,57.200 391.867,57.200 392.200 C 57.200 392.622,57.626 392.800,58.637 392.800 C 59.738 392.800,60.124 392.987,60.284 393.600 C 60.400 394.043,60.830 394.400,61.247 394.400 C 61.733 394.400,62.000 394.683,62.000 395.200 C 62.000 395.867,62.267 396.000,63.600 396.000 C 64.701 396.000,65.200 396.174,65.200 396.557 C 65.200 397.277,66.078 397.600,68.033 397.600 C 69.333 397.600,69.600 397.736,69.600 398.400 C 69.600 399.111,69.867 399.200,72.000 399.200 C 73.333 399.200,74.400 399.378,74.400 399.600 C 74.400 399.859,79.067 400.000,87.600 400.000 C 96.133 400.000,100.800 399.859,100.800 399.600 C 100.800 399.357,102.600 399.200,105.400 399.200 C 109.733 399.200,110.000 399.154,110.000 398.400 C 110.000 397.654,110.267 397.600,113.938 397.600 C 117.368 397.600,117.969 397.497,118.600 396.800 C 119.231 396.103,119.832 396.000,123.262 396.000 C 126.933 396.000,127.200 395.946,127.200 395.200 C 127.200 394.444,127.467 394.400,132.000 394.400 C 136.533 394.400,136.800 394.356,136.800 393.600 C 136.800 392.857,137.067 392.800,140.524 392.800 C 143.178 392.800,144.470 392.631,145.024 392.213 C 145.586 391.787,146.930 391.622,149.900 391.613 C 153.729 391.601,154.000 391.547,154.000 390.800 C 154.000 390.046,154.267 390.000,158.600 390.000 C 162.933 390.000,163.200 389.954,163.200 389.200 C 163.200 388.455,163.467 388.400,167.112 388.400 C 170.565 388.400,171.091 388.306,171.600 387.600 C 172.112 386.889,172.635 386.800,176.288 386.800 C 180.133 386.800,180.400 386.748,180.400 386.000 C 180.400 385.244,180.667 385.200,185.200 385.200 C 189.733 385.200,190.000 385.156,190.000 384.400 C 190.000 383.658,190.267 383.600,193.704 383.600 C 196.974 383.600,197.466 383.506,197.907 382.800 C 198.358 382.079,198.840 382.000,202.803 382.000 C 206.933 382.000,207.200 381.951,207.200 381.200 C 207.200 380.446,207.467 380.400,211.800 380.400 C 216.133 380.400,216.400 380.354,216.400 379.600 C 216.400 378.855,216.667 378.800,220.304 378.800 C 223.774 378.800,224.263 378.711,224.707 378.000 C 225.155 377.283,225.640 377.200,229.403 377.200 C 233.333 377.200,233.600 377.149,233.600 376.400 C 233.600 375.646,233.867 375.600,238.200 375.600 C 242.022 375.600,242.800 375.499,242.800 375.000 C 242.800 374.507,243.511 374.400,246.800 374.400 C 249.952 374.400,250.800 374.282,250.800 373.843 C 250.800 372.986,251.733 372.800,256.033 372.800 C 259.733 372.800,260.000 372.746,260.000 372.000 C 260.000 371.244,260.267 371.200,264.800 371.200 C 269.333 371.200,269.600 371.156,269.600 370.400 C 269.600 369.658,269.867 369.600,273.304 369.600 C 276.574 369.600,277.066 369.506,277.507 368.800 C 277.958 368.079,278.440 368.000,282.403 368.000 C 286.533 368.000,286.800 367.951,286.800 367.200 C 286.800 366.454,287.067 366.400,290.767 366.400 C 295.067 366.400,296.000 366.214,296.000 365.357 C 296.000 364.918,296.847 364.800,299.997 364.800 C 303.560 364.800,304.047 364.713,304.493 364.000 C 304.940 363.284,305.426 363.200,309.096 363.200 C 312.933 363.200,313.200 363.148,313.200 362.400 C 313.200 361.689,313.467 361.600,315.600 361.600 C 317.733 361.600,318.000 361.511,318.000 360.800 C 318.000 360.172,318.267 360.000,319.237 360.000 C 320.138 360.000,320.532 359.783,320.684 359.200 C 320.819 358.682,321.230 358.400,321.847 358.400 C 322.663 358.400,322.800 358.206,322.800 357.047 C 322.800 356.030,322.999 355.641,323.600 355.484 C 324.670 355.204,324.672 353.051,323.604 351.300 C 322.710 349.833,320.799 349.511,319.376 350.587 C 318.238 351.449,308.313 351.459,307.600 350.600 C 307.220 350.142,306.185 350.000,303.240 350.000 C 300.302 350.000,299.153 349.842,298.438 349.342 C 297.785 348.884,296.324 348.625,293.649 348.493 C 290.886 348.356,289.592 348.120,289.063 347.656 C 288.527 347.186,287.206 346.953,284.223 346.805 C 281.820 346.685,279.871 346.393,279.519 346.100 C 279.188 345.825,277.496 345.488,275.759 345.352 C 274.021 345.216,272.216 344.866,271.747 344.574 C 271.278 344.282,269.074 343.918,266.849 343.764 C 264.225 343.584,262.645 343.295,262.353 342.943 C 261.729 342.192,257.219 342.229,255.746 342.998 C 255.116 343.326,253.879 343.596,252.999 343.598 C 252.118 343.599,250.139 343.960,248.600 344.400 C 247.061 344.840,244.992 345.203,244.001 345.207 C 243.011 345.211,240.850 345.568,239.200 346.000 C 237.550 346.432,235.558 346.789,234.773 346.793 C 233.988 346.797,232.008 347.156,230.373 347.591 C 228.738 348.025,226.590 348.393,225.600 348.408 C 224.610 348.423,223.080 348.699,222.200 349.022 C 221.320 349.345,218.980 349.774,217.000 349.977 C 215.020 350.179,212.860 350.532,212.200 350.761 C 211.540 350.990,209.552 351.353,207.783 351.567 C 206.013 351.782,204.095 352.136,203.520 352.354 C 202.945 352.573,201.333 352.870,199.937 353.016 C 198.542 353.161,196.410 353.515,195.200 353.802 C 193.990 354.090,191.920 354.442,190.600 354.584 C 189.280 354.727,187.300 355.088,186.200 355.387 C 185.100 355.686,183.030 356.052,181.600 356.200 C 180.170 356.348,178.100 356.714,177.000 357.013 C 175.900 357.312,173.920 357.670,172.600 357.809 C 171.280 357.948,169.300 358.298,168.200 358.588 C 167.100 358.878,164.997 359.228,163.526 359.366 C 162.056 359.504,160.098 359.883,159.176 360.208 C 158.254 360.534,156.835 360.800,156.023 360.800 C 155.210 360.800,153.208 361.156,151.573 361.591 C 149.938 362.025,147.610 362.393,146.400 362.408 C 145.190 362.423,143.480 362.692,142.600 363.007 C 141.720 363.322,139.920 363.683,138.600 363.811 C 137.280 363.939,134.670 364.387,132.800 364.807 C 129.151 365.626,126.082 366.150,121.000 366.823 C 119.240 367.057,116.886 367.506,115.768 367.823 C 114.650 368.139,112.580 368.509,111.168 368.644 C 109.756 368.779,107.261 369.229,105.625 369.645 C 103.988 370.060,102.007 370.400,101.222 370.400 C 100.437 370.400,99.166 370.589,98.397 370.821 C 93.196 372.386,82.238 372.511,79.861 371.032 C 79.388 370.737,78.550 370.382,78.000 370.244 C 75.329 369.573,70.134 364.185,68.124 360.000 C 64.677 352.824,66.943 341.932,72.944 336.828 C 73.573 336.293,74.293 335.660,74.544 335.422 C 76.567 333.503,80.952 331.710,84.817 331.223 C 86.477 331.014,88.305 330.664,88.880 330.446 C 89.455 330.227,91.067 329.930,92.463 329.786 C 93.858 329.642,95.636 329.365,96.412 329.170 C 97.189 328.976,99.259 328.621,101.012 328.381 C 102.766 328.142,105.100 327.700,106.200 327.400 C 107.300 327.099,109.370 326.731,110.800 326.581 C 112.230 326.431,113.747 326.125,114.171 325.902 C 114.595 325.679,116.301 325.343,117.962 325.157 C 119.623 324.971,122.156 324.553,123.591 324.228 C 125.026 323.904,127.370 323.452,128.800 323.224 C 131.850 322.738,136.620 321.519,137.010 321.126 C 137.300 320.833,136.047 320.587,132.200 320.180 C 130.880 320.041,129.530 319.696,129.200 319.415 C 128.848 319.116,126.970 318.812,124.665 318.682 C 121.893 318.526,120.523 318.274,120.033 317.830 C 119.541 317.385,118.524 317.199,116.569 317.198 C 114.791 317.196,113.370 316.964,112.600 316.551 C 111.849 316.148,109.980 315.831,107.600 315.705 C 105.057 315.570,103.576 315.307,103.122 314.909 C 102.665 314.509,101.065 314.231,98.205 314.053 C 95.111 313.862,93.866 313.631,93.599 313.199 C 93.338 312.775,92.293 312.567,89.917 312.463 C 88.002 312.380,86.346 312.103,86.000 311.807 C 85.670 311.525,84.950 311.165,84.400 311.006 C 82.975 310.594,78.478 306.068,78.190 304.755 C 78.057 304.150,77.690 303.441,77.374 303.179 C 76.540 302.486,76.561 295.896,77.400 295.200 C 77.730 294.926,78.000 294.388,78.000 294.005 C 78.000 293.622,78.322 292.879,78.716 292.354 C 79.110 291.829,79.646 290.905,79.907 290.300 C 80.183 289.663,80.697 289.200,81.129 289.200 C 81.540 289.200,82.202 288.840,82.600 288.400 C 82.998 287.960,83.611 287.599,83.962 287.597 C 84.313 287.596,85.140 287.237,85.800 286.800 C 86.671 286.223,87.678 286.005,89.476 286.003 C 90.876 286.001,92.074 285.804,92.231 285.550 C 92.705 284.784,93.979 278.680,93.990 277.126 C 93.995 276.315,94.190 275.153,94.421 274.544 C 94.653 273.935,95.106 271.561,95.427 269.270 C 95.749 266.979,96.084 264.988,96.172 264.846 C 96.260 264.704,96.527 263.150,96.766 261.394 C 97.004 259.637,97.462 256.940,97.783 255.400 C 98.103 253.860,98.632 251.096,98.958 249.259 C 99.284 247.421,99.840 245.598,100.193 245.208 C 100.952 244.369,100.702 244.214,97.904 243.795 C 95.880 243.491,90.800 239.363,90.800 238.022 C 90.800 237.629,90.466 236.879,90.058 236.354 C 89.080 235.096,88.592 227.773,89.412 226.652 C 89.713 226.240,89.853 225.389,89.739 224.666 C 89.630 223.970,89.917 221.330,90.377 218.800 C 90.836 216.270,91.483 212.333,91.812 210.052 C 92.142 207.771,92.481 205.791,92.564 205.652 C 92.648 205.513,93.275 202.250,93.958 198.400 C 94.641 194.550,95.387 190.410,95.615 189.200 C 95.843 187.990,96.279 185.380,96.584 183.400 C 96.888 181.420,97.777 176.290,98.559 172.000 C 99.341 167.710,100.264 162.490,100.611 160.400 C 100.959 158.310,101.580 154.800,101.992 152.600 C 102.405 150.400,103.131 146.350,103.605 143.600 C 104.080 140.850,104.726 137.250,105.040 135.600 C 105.354 133.950,105.878 130.980,106.204 129.000 C 106.530 127.020,107.075 123.870,107.416 122.000 C 107.757 120.130,108.379 116.530,108.800 114.000 C 109.220 111.470,110.202 105.890,110.982 101.600 C 115.066 79.133,115.735 74.991,115.456 73.880 L 115.185 72.800 111.192 72.800 C 107.467 72.800,107.200 72.853,107.200 73.600 M385.912 179.178 C 385.556 179.593,385.370 180.036,385.497 180.164 C 385.624 180.291,385.988 180.024,386.305 179.572 C 387.054 178.503,386.750 178.199,385.912 179.178 M381.203 205.589 C 380.767 205.865,380.726 206.086,381.050 206.410 C 381.374 206.734,381.551 206.631,381.709 206.026 C 381.828 205.572,381.897 205.203,381.863 205.206 C 381.828 205.209,381.532 205.382,381.203 205.589 M371.459 258.989 C 371.336 259.311,371.388 259.669,371.576 259.785 C 371.763 259.901,372.017 259.732,372.141 259.411 C 372.264 259.089,372.212 258.731,372.024 258.615 C 371.837 258.499,371.583 258.668,371.459 258.989 M366.667 285.867 C 366.181 286.353,366.390 286.779,367.000 286.545 C 367.330 286.418,367.600 286.154,367.600 285.957 C 367.600 285.538,367.049 285.484,366.667 285.867 " stroke="none" fill="#224980" fill-rule="evenodd"></path><path id="path1" d="M133.600 0.400 C 133.600 0.620,132.880 0.800,132.000 0.800 C 130.667 0.800,130.400 0.933,130.400 1.600 C 130.400 2.044,130.133 2.400,129.800 2.400 C 129.467 2.400,129.200 2.756,129.200 3.200 C 129.200 3.733,128.933 4.000,128.400 4.000 C 127.733 4.000,127.600 4.267,127.600 5.600 C 127.600 6.933,127.467 7.200,126.800 7.200 C 126.089 7.200,126.000 7.467,126.000 9.600 C 126.000 11.733,125.911 12.000,125.200 12.000 C 124.446 12.000,124.400 12.267,124.400 16.600 C 124.400 20.933,124.354 21.200,123.600 21.200 C 122.855 21.200,122.800 21.467,122.800 25.104 C 122.800 28.574,122.711 29.063,122.000 29.507 C 121.283 29.955,121.200 30.440,121.200 34.203 C 121.200 38.133,121.149 38.400,120.400 38.400 C 119.646 38.400,119.600 38.667,119.600 43.000 C 119.600 47.333,119.554 47.600,118.800 47.600 C 118.054 47.600,118.000 47.867,118.000 51.580 C 118.000 54.955,117.894 55.620,117.300 55.951 C 116.718 56.277,116.577 57.047,116.465 60.534 C 116.344 64.261,116.245 64.747,115.565 64.925 C 114.644 65.166,114.444 71.158,115.279 73.467 C 115.682 74.583,115.583 75.783,114.647 81.095 C 112.905 90.984,112.495 93.278,110.982 101.600 C 110.202 105.890,109.220 111.470,108.800 114.000 C 108.379 116.530,107.757 120.130,107.416 122.000 C 107.075 123.870,106.530 127.020,106.204 129.000 C 105.878 130.980,105.354 133.950,105.040 135.600 C 104.726 137.250,104.080 140.850,103.605 143.600 C 103.131 146.350,102.405 150.400,101.992 152.600 C 101.580 154.800,100.959 158.310,100.611 160.400 C 100.264 162.490,99.341 167.710,98.559 172.000 C 97.777 176.290,96.888 181.420,96.584 183.400 C 96.279 185.380,95.843 187.990,95.615 189.200 C 95.387 190.410,94.641 194.550,93.958 198.400 C 93.275 202.250,92.648 205.513,92.564 205.652 C 92.481 205.791,92.142 207.771,91.812 210.052 C 91.483 212.333,90.836 216.270,90.377 218.800 C 89.917 221.330,89.630 223.970,89.739 224.666 C 89.853 225.389,89.713 226.240,89.412 226.652 C 88.592 227.773,89.080 235.096,90.058 236.354 C 90.466 236.879,90.800 237.629,90.800 238.022 C 90.800 239.363,95.880 243.491,97.904 243.795 C 100.748 244.221,100.954 244.363,100.117 245.313 C 99.435 246.087,99.435 246.108,100.112 245.741 C 100.918 245.304,106.414 245.766,108.000 246.405 C 108.550 246.626,110.440 246.959,112.200 247.143 C 115.102 247.448,118.096 247.954,124.400 249.207 C 125.610 249.448,128.310 249.886,130.400 250.180 C 132.490 250.475,134.659 250.897,135.220 251.118 C 135.780 251.338,137.490 251.641,139.020 251.790 C 140.549 251.938,142.733 252.318,143.873 252.633 C 145.013 252.949,147.083 253.315,148.473 253.447 C 149.863 253.579,151.900 253.924,153.000 254.214 C 154.100 254.503,156.241 254.861,157.757 255.008 C 159.274 255.155,161.164 255.503,161.957 255.780 C 162.751 256.058,164.728 256.414,166.351 256.572 C 167.974 256.729,169.774 257.044,170.351 257.271 C 170.928 257.498,173.200 257.920,175.400 258.208 C 177.600 258.496,180.210 258.914,181.200 259.138 C 182.190 259.362,184.170 259.736,185.600 259.970 C 188.182 260.392,190.471 260.816,194.500 261.618 C 195.655 261.848,198.313 262.286,200.406 262.592 C 202.499 262.898,204.688 263.329,205.269 263.550 C 205.850 263.771,207.467 264.071,208.863 264.217 C 210.258 264.363,212.300 264.728,213.400 265.029 C 214.500 265.329,216.750 265.753,218.400 265.970 C 221.761 266.413,227.095 267.305,231.600 268.178 C 233.250 268.498,236.130 269.056,238.000 269.419 C 239.870 269.783,243.138 270.311,245.263 270.593 C 247.387 270.876,249.311 271.221,249.538 271.361 C 249.764 271.502,251.446 271.799,253.275 272.022 C 255.104 272.245,257.140 272.596,257.800 272.801 C 258.962 273.163,263.641 273.974,269.400 274.813 C 270.940 275.038,273.370 275.487,274.800 275.813 C 276.230 276.138,278.750 276.573,280.400 276.780 C 282.050 276.987,284.473 277.436,285.784 277.778 C 287.095 278.120,288.625 278.400,289.184 278.400 C 290.148 278.399,295.667 279.380,301.800 280.642 C 303.340 280.958,305.590 281.323,306.800 281.452 C 308.010 281.581,309.900 281.925,311.000 282.217 C 312.100 282.508,313.990 282.864,315.200 283.007 C 317.667 283.300,321.870 284.654,322.831 285.466 C 323.179 285.760,323.663 286.000,323.907 286.000 C 324.718 286.000,330.242 291.769,331.376 293.800 C 338.152 305.935,330.433 321.455,316.590 323.532 C 313.025 324.067,305.249 323.388,301.436 322.208 C 300.356 321.873,298.736 321.598,297.836 321.595 C 296.936 321.593,295.222 321.330,294.027 321.012 C 292.833 320.694,290.583 320.311,289.027 320.160 C 287.472 320.009,285.551 319.658,284.757 319.380 C 283.964 319.103,282.074 318.745,280.557 318.585 C 279.041 318.424,276.990 318.048,276.000 317.748 C 275.010 317.447,272.940 317.096,271.400 316.965 C 269.860 316.835,267.790 316.491,266.800 316.199 C 265.810 315.908,263.740 315.555,262.200 315.415 C 260.660 315.275,258.680 314.920,257.800 314.625 C 256.920 314.331,254.850 313.959,253.200 313.799 C 251.550 313.639,249.869 313.334,249.463 313.121 C 249.058 312.907,247.029 312.572,244.955 312.376 C 242.880 312.180,240.856 311.844,240.456 311.630 C 240.057 311.416,238.305 311.062,236.565 310.843 C 234.824 310.624,232.327 310.165,231.016 309.822 C 229.705 309.480,228.085 309.200,227.416 309.200 C 226.341 309.201,224.360 308.867,215.600 307.211 C 214.390 306.982,212.230 306.606,210.800 306.375 C 209.370 306.144,207.480 305.777,206.600 305.560 C 205.720 305.342,203.650 304.978,202.000 304.749 C 200.350 304.520,197.809 304.072,196.354 303.753 C 194.898 303.434,192.378 303.018,190.754 302.829 C 189.129 302.640,187.294 302.286,186.675 302.043 C 186.057 301.800,184.257 301.486,182.675 301.346 C 181.094 301.205,179.474 300.923,179.076 300.719 C 178.678 300.514,176.724 300.178,174.734 299.972 C 172.744 299.766,170.190 299.343,169.058 299.032 C 167.926 298.720,165.858 298.350,164.463 298.209 C 163.067 298.067,161.455 297.773,160.880 297.554 C 160.305 297.336,158.387 296.985,156.617 296.774 C 154.848 296.563,152.320 296.136,151.000 295.824 C 149.680 295.512,147.340 295.065,145.800 294.831 C 144.260 294.597,142.100 294.232,141.000 294.020 C 139.900 293.808,137.920 293.458,136.600 293.241 C 135.280 293.024,133.165 292.656,131.900 292.423 C 127.889 291.685,125.082 291.209,122.200 290.776 C 120.660 290.545,118.590 290.174,117.600 289.951 C 116.610 289.728,114.810 289.372,113.600 289.160 C 112.390 288.949,110.230 288.514,108.800 288.195 C 107.370 287.876,104.940 287.496,103.400 287.350 C 101.860 287.205,100.190 286.934,99.690 286.749 C 99.189 286.564,97.576 286.220,96.105 285.985 C 94.634 285.750,93.220 285.383,92.962 285.169 C 92.643 284.904,92.418 284.975,92.259 285.390 C 92.084 285.847,91.394 286.001,89.513 286.003 C 87.678 286.005,86.676 286.220,85.800 286.800 C 85.140 287.237,84.313 287.596,83.962 287.597 C 83.611 287.599,82.998 287.960,82.600 288.400 C 82.202 288.840,81.540 289.200,81.129 289.200 C 80.697 289.200,80.183 289.663,79.907 290.300 C 79.646 290.905,79.110 291.829,78.716 292.354 C 78.322 292.879,78.000 293.622,78.000 294.005 C 78.000 294.388,77.730 294.926,77.400 295.200 C 76.561 295.896,76.540 302.486,77.374 303.179 C 77.690 303.441,78.057 304.150,78.190 304.755 C 78.478 306.068,82.975 310.594,84.400 311.006 C 84.950 311.165,85.670 311.525,86.000 311.807 C 86.346 312.103,88.002 312.380,89.917 312.463 C 92.293 312.567,93.338 312.775,93.599 313.199 C 93.866 313.631,95.111 313.862,98.205 314.053 C 101.065 314.231,102.665 314.509,103.122 314.909 C 103.576 315.307,105.057 315.570,107.600 315.705 C 109.980 315.831,111.849 316.148,112.600 316.551 C 113.370 316.964,114.791 317.196,116.569 317.198 C 118.524 317.199,119.541 317.385,120.033 317.830 C 120.523 318.274,121.893 318.526,124.665 318.682 C 126.970 318.812,128.848 319.116,129.200 319.415 C 129.530 319.696,130.880 320.041,132.200 320.180 C 137.275 320.716,138.240 321.128,135.800 321.715 C 135.360 321.821,136.092 321.928,137.427 321.954 C 138.762 321.979,141.192 322.356,142.827 322.791 C 144.462 323.225,146.536 323.585,147.436 323.591 C 148.336 323.596,149.956 323.868,151.036 324.195 C 152.116 324.523,154.170 324.902,155.600 325.039 C 157.030 325.176,159.539 325.628,161.175 326.044 C 162.812 326.460,164.882 326.804,165.775 326.809 C 166.669 326.815,168.738 327.175,170.373 327.609 C 172.008 328.044,174.000 328.400,174.800 328.400 C 175.600 328.400,177.142 328.659,178.227 328.975 C 179.312 329.292,181.550 329.678,183.200 329.833 C 184.850 329.988,186.864 330.347,187.675 330.631 C 188.486 330.914,190.466 331.274,192.075 331.431 C 193.684 331.587,195.687 331.955,196.526 332.249 C 197.366 332.543,199.256 332.896,200.726 333.034 C 202.197 333.172,204.300 333.521,205.400 333.810 C 206.500 334.098,208.570 334.447,210.000 334.584 C 211.430 334.721,213.410 335.080,214.400 335.382 C 215.390 335.684,217.370 336.038,218.800 336.170 C 220.230 336.302,222.284 336.677,223.364 337.005 C 224.444 337.332,226.064 337.604,226.964 337.609 C 227.864 337.615,229.938 337.975,231.573 338.409 C 233.208 338.844,235.279 339.200,236.174 339.200 C 237.070 339.200,239.061 339.560,240.600 340.000 C 242.139 340.440,244.003 340.800,244.744 340.800 C 245.485 340.800,247.645 341.195,249.545 341.677 C 252.236 342.360,253.963 342.534,257.353 342.463 C 260.630 342.394,261.866 342.511,262.353 342.936 C 262.758 343.288,264.483 343.604,266.957 343.778 C 269.134 343.931,271.294 344.293,271.757 344.581 C 272.221 344.869,274.021 345.216,275.759 345.352 C 277.496 345.488,279.188 345.825,279.519 346.100 C 279.871 346.393,281.820 346.685,284.223 346.805 C 287.206 346.953,288.527 347.186,289.063 347.656 C 289.592 348.120,290.886 348.356,293.649 348.493 C 296.324 348.625,297.785 348.884,298.438 349.342 C 299.153 349.842,300.302 350.000,303.240 350.000 C 306.185 350.000,307.220 350.142,307.600 350.600 C 308.313 351.459,318.238 351.449,319.376 350.587 C 320.761 349.540,322.742 349.832,323.519 351.197 C 324.379 352.710,327.200 353.018,327.200 351.600 C 327.200 350.889,327.467 350.800,329.600 350.800 C 331.733 350.800,332.000 350.711,332.000 350.000 C 332.000 349.333,332.267 349.200,333.600 349.200 C 334.933 349.200,335.200 349.067,335.200 348.400 C 335.200 347.733,335.467 347.600,336.800 347.600 C 338.133 347.600,338.400 347.467,338.400 346.800 C 338.400 346.133,338.667 346.000,340.000 346.000 C 341.333 346.000,341.600 345.867,341.600 345.200 C 341.600 344.756,341.867 344.400,342.200 344.400 C 342.533 344.400,342.800 344.044,342.800 343.600 C 342.800 342.933,343.067 342.800,344.400 342.800 C 345.556 342.800,346.000 342.633,346.000 342.200 C 346.000 341.867,346.356 341.600,346.800 341.600 C 347.333 341.600,347.600 341.333,347.600 340.800 C 347.600 340.267,347.867 340.000,348.400 340.000 C 348.933 340.000,349.200 339.733,349.200 339.200 C 349.200 338.667,349.467 338.400,350.000 338.400 C 350.533 338.400,350.800 338.133,350.800 337.600 C 350.800 337.067,351.067 336.800,351.600 336.800 C 352.267 336.800,352.400 336.533,352.400 335.200 C 352.400 333.867,352.533 333.600,353.200 333.600 C 353.733 333.600,354.000 333.333,354.000 332.800 C 354.000 332.267,354.267 332.000,354.800 332.000 C 355.467 332.000,355.600 331.733,355.600 330.400 C 355.600 329.067,355.733 328.800,356.400 328.800 C 356.933 328.800,357.200 328.533,357.200 328.000 C 357.200 327.556,357.467 327.200,357.800 327.200 C 358.244 327.200,358.400 326.734,358.400 325.403 C 358.400 324.040,358.593 323.486,359.200 323.107 C 359.770 322.751,360.000 322.174,360.000 321.104 C 360.000 319.867,360.142 319.600,360.800 319.600 C 361.533 319.600,361.600 319.333,361.600 316.420 C 361.600 313.807,361.725 313.170,362.300 312.849 C 362.878 312.527,363.035 311.704,363.200 308.129 C 363.361 304.637,363.516 303.800,364.000 303.800 C 364.493 303.800,364.620 302.961,364.713 299.100 C 364.817 294.730,364.881 294.400,365.613 294.400 C 366.345 294.400,366.400 294.111,366.400 290.289 C 366.400 286.673,366.496 286.095,367.200 285.493 C 367.895 284.898,368.000 284.313,368.000 281.051 C 368.000 277.630,368.072 277.275,368.800 277.084 C 369.539 276.891,369.600 276.538,369.600 272.484 C 369.600 268.535,369.675 268.074,370.346 267.898 C 370.997 267.728,371.102 267.247,371.166 264.151 C 371.206 262.198,371.306 260.240,371.389 259.800 C 371.471 259.360,371.553 258.865,371.569 258.700 C 371.586 258.535,371.825 258.445,372.100 258.500 C 372.465 258.573,372.631 257.596,372.715 254.885 C 372.810 251.825,372.969 251.031,373.615 250.385 C 374.295 249.705,374.400 249.040,374.400 245.400 C 374.400 241.933,374.505 241.200,375.000 241.200 C 375.493 241.200,375.600 240.489,375.600 237.200 C 375.600 233.984,375.713 233.200,376.176 233.200 C 376.493 233.200,376.881 232.992,377.038 232.738 C 377.229 232.429,377.138 232.382,376.762 232.597 C 376.307 232.856,376.296 232.814,376.700 232.379 C 377.024 232.030,377.200 230.561,377.200 228.216 C 377.200 225.026,377.296 224.533,378.000 224.093 C 378.721 223.642,378.800 223.160,378.800 219.197 C 378.800 215.067,378.849 214.800,379.600 214.800 C 380.347 214.800,380.400 214.533,380.400 210.800 C 380.400 208.486,380.563 206.800,380.787 206.800 C 381.001 206.800,381.059 206.499,380.918 206.131 C 380.724 205.625,380.824 205.523,381.326 205.716 C 381.691 205.856,381.971 205.843,381.948 205.686 C 381.546 202.991,382.093 197.624,382.792 197.403 C 383.227 197.264,383.566 197.027,383.545 196.876 C 383.235 194.703,383.691 188.400,384.157 188.400 C 384.986 188.400,385.152 187.627,385.231 183.397 C 385.287 180.398,385.419 179.598,385.831 179.757 C 386.154 179.880,386.279 179.750,386.152 179.420 C 386.039 179.124,386.138 178.762,386.373 178.617 C 386.624 178.462,386.800 176.887,386.800 174.796 C 386.800 171.925,386.926 171.169,387.452 170.875 C 388.196 170.459,388.278 169.929,388.349 165.129 C 388.393 162.167,388.503 161.639,389.099 161.524 C 389.871 161.375,389.853 161.471,389.939 157.100 C 389.994 154.303,390.077 154.000,390.788 154.000 C 391.522 154.000,391.583 153.670,391.688 149.100 C 391.765 145.715,391.940 144.226,392.254 144.285 C 392.567 144.343,392.728 142.984,392.774 139.896 C 392.837 135.660,393.156 134.478,394.081 135.050 C 394.256 135.158,394.400 133.437,394.400 131.224 C 394.400 127.488,394.456 127.200,395.187 127.200 C 395.919 127.200,395.983 126.870,396.087 122.500 C 396.180 118.639,396.307 117.800,396.800 117.800 C 397.293 117.800,397.420 116.961,397.513 113.100 C 397.617 108.730,397.681 108.400,398.413 108.400 C 399.141 108.400,399.200 108.113,399.200 104.600 C 399.200 102.333,399.361 100.800,399.600 100.800 C 399.859 100.800,400.000 96.133,400.000 87.600 C 400.000 79.067,399.859 74.400,399.600 74.400 C 399.378 74.400,399.200 73.333,399.200 72.000 C 399.200 70.133,399.022 69.422,398.400 68.800 C 397.897 68.297,397.600 67.467,397.600 66.563 C 397.600 65.462,397.413 65.076,396.800 64.916 C 396.199 64.759,396.000 64.370,396.000 63.353 C 396.000 62.267,395.842 62.000,395.200 62.000 C 394.548 62.000,394.400 61.733,394.400 60.563 C 394.400 59.462,394.213 59.076,393.600 58.916 C 393.157 58.800,392.800 58.370,392.800 57.953 C 392.800 57.539,392.530 57.200,392.200 57.200 C 391.867 57.200,391.600 56.844,391.600 56.400 C 391.600 55.882,391.333 55.600,390.845 55.600 C 390.302 55.600,390.017 55.216,389.834 54.239 C 389.693 53.490,389.313 52.776,388.989 52.651 C 388.665 52.527,388.400 52.059,388.400 51.613 C 388.400 51.081,388.137 50.800,387.641 50.800 C 387.224 50.800,386.326 50.166,385.646 49.391 C 384.961 48.611,383.871 47.874,383.204 47.741 C 382.379 47.576,382.000 47.264,382.000 46.750 C 382.000 46.267,381.716 46.000,381.200 46.000 C 380.756 46.000,380.400 45.733,380.400 45.400 C 380.400 45.070,380.061 44.800,379.647 44.800 C 379.230 44.800,378.800 44.443,378.684 44.000 C 378.524 43.387,378.138 43.200,377.037 43.200 C 375.867 43.200,375.600 43.052,375.600 42.400 C 375.600 41.728,375.333 41.600,373.933 41.600 C 373.017 41.600,372.385 41.482,372.530 41.337 C 373.035 40.832,371.893 40.000,370.695 40.000 C 370.022 40.000,369.269 39.700,368.992 39.322 C 368.641 38.841,367.737 38.596,365.883 38.478 C 363.724 38.340,363.235 38.178,363.069 37.544 C 362.959 37.122,362.718 36.804,362.534 36.836 C 360.104 37.264,355.600 36.721,355.600 36.000 C 355.600 35.244,355.333 35.200,350.800 35.200 C 346.267 35.200,346.000 35.156,346.000 34.400 C 346.000 33.654,345.733 33.600,342.033 33.600 C 337.733 33.600,336.800 33.414,336.800 32.557 C 336.800 32.118,335.952 32.000,332.800 32.000 C 329.067 32.000,328.800 31.947,328.800 31.200 C 328.800 30.446,328.533 30.400,324.200 30.400 C 320.378 30.400,319.600 30.299,319.600 29.800 C 319.600 29.305,318.874 29.200,315.462 29.200 C 311.832 29.200,311.235 29.102,310.600 28.400 C 309.974 27.709,309.368 27.600,306.138 27.600 C 302.667 27.600,302.400 27.543,302.400 26.800 C 302.400 26.044,302.133 26.000,297.600 26.000 C 293.067 26.000,292.800 25.956,292.800 25.200 C 292.800 24.451,292.533 24.400,288.603 24.400 C 284.840 24.400,284.355 24.317,283.907 23.600 C 283.463 22.889,282.974 22.800,279.504 22.800 C 275.867 22.800,275.600 22.745,275.600 22.000 C 275.600 21.246,275.333 21.200,271.000 21.200 C 266.667 21.200,266.400 21.154,266.400 20.400 C 266.400 19.649,266.133 19.600,262.027 19.600 C 258.005 19.600,257.634 19.536,257.400 18.800 C 257.169 18.071,256.795 18.000,253.173 18.000 C 249.467 18.000,249.200 17.946,249.200 17.200 C 249.200 16.447,248.933 16.400,244.647 16.400 C 240.430 16.400,240.078 16.341,239.884 15.600 C 239.692 14.864,239.338 14.800,235.441 14.800 C 231.640 14.800,231.156 14.718,230.707 14.000 C 230.266 13.294,229.774 13.200,226.504 13.200 C 223.478 13.200,222.800 13.090,222.800 12.600 C 222.800 12.100,222.000 12.000,218.000 12.000 C 213.467 12.000,213.200 11.956,213.200 11.200 C 213.200 10.451,212.933 10.400,209.003 10.400 C 205.240 10.400,204.755 10.317,204.307 9.600 C 203.863 8.889,203.374 8.800,199.924 8.800 C 196.640 8.800,195.979 8.692,195.649 8.100 C 195.323 7.517,194.550 7.377,191.029 7.264 C 187.182 7.139,186.800 7.058,186.800 6.364 C 186.800 5.655,186.457 5.600,182.000 5.600 C 177.467 5.600,177.200 5.556,177.200 4.800 C 177.200 4.056,176.933 4.000,173.400 4.000 C 170.133 4.000,169.488 3.888,168.800 3.200 C 168.107 2.507,167.467 2.400,164.000 2.400 C 160.267 2.400,160.000 2.347,160.000 1.600 C 160.000 0.846,159.733 0.800,155.400 0.800 C 152.600 0.800,150.800 0.643,150.800 0.400 C 150.800 0.146,147.667 0.000,142.200 0.000 C 136.733 0.000,133.600 0.146,133.600 0.400 M164.000 31.969 C 167.410 32.613,172.360 33.512,175.000 33.968 C 177.640 34.424,182.770 35.347,186.400 36.019 C 190.030 36.690,194.260 37.418,195.800 37.635 C 197.340 37.852,200.400 38.372,202.600 38.790 C 204.800 39.208,209.390 40.028,212.800 40.613 C 216.210 41.198,221.430 42.119,224.400 42.658 C 227.370 43.197,235.020 44.517,241.400 45.591 C 247.780 46.665,253.810 47.724,254.800 47.945 C 255.790 48.166,261.010 49.085,266.400 49.988 C 271.790 50.890,278.000 51.999,280.200 52.450 C 282.400 52.902,285.820 53.513,287.800 53.807 C 289.780 54.101,295.450 55.091,300.400 56.007 C 305.350 56.923,310.902 57.917,312.737 58.217 C 319.404 59.306,322.255 64.323,319.009 69.252 C 316.854 72.523,314.950 72.823,306.445 71.230 C 299.590 69.947,293.748 68.919,285.800 67.599 C 282.940 67.124,279.340 66.480,277.800 66.169 C 276.260 65.858,273.380 65.331,271.400 64.998 C 261.587 63.349,253.503 61.945,250.800 61.420 C 247.384 60.757,239.368 59.333,235.800 58.756 C 234.480 58.542,232.500 58.196,231.400 57.987 C 225.387 56.845,222.649 56.342,219.400 55.780 C 217.420 55.438,213.190 54.698,210.000 54.137 C 206.810 53.575,203.120 52.953,201.800 52.755 C 200.480 52.557,199.175 52.312,198.900 52.210 C 198.625 52.109,193.495 51.202,187.500 50.195 C 181.505 49.189,174.890 48.019,172.800 47.597 C 170.710 47.174,167.290 46.560,165.200 46.231 C 156.816 44.913,155.795 44.681,154.327 43.754 C 149.071 40.436,150.023 32.975,155.929 31.192 C 157.490 30.721,157.274 30.700,164.000 31.969 M183.200 70.391 C 184.190 70.590,187.160 71.125,189.800 71.579 C 192.440 72.034,196.580 72.759,199.000 73.192 C 205.191 74.298,217.166 76.374,221.200 77.039 C 223.070 77.348,225.410 77.783,226.400 78.005 C 227.390 78.228,229.910 78.680,232.000 79.009 C 234.090 79.339,237.150 79.854,238.800 80.155 C 240.450 80.456,244.050 81.087,246.800 81.557 C 249.550 82.027,252.610 82.574,253.600 82.773 C 254.590 82.971,256.750 83.337,258.400 83.587 C 260.050 83.837,264.190 84.558,267.600 85.189 C 271.010 85.820,275.870 86.717,278.400 87.183 C 286.004 88.585,289.002 92.499,286.392 97.616 C 284.421 101.479,281.897 101.869,271.159 99.968 C 267.332 99.290,262.760 98.501,261.000 98.215 C 259.240 97.928,256.360 97.413,254.600 97.070 C 252.840 96.727,250.590 96.335,249.600 96.198 C 248.610 96.061,245.010 95.434,241.600 94.803 C 233.530 93.311,224.471 91.691,221.200 91.155 C 219.770 90.921,216.260 90.300,213.400 89.775 C 210.540 89.251,204.960 88.275,201.000 87.608 C 197.040 86.940,192.990 86.220,192.000 86.008 C 190.113 85.605,182.143 84.202,179.400 83.791 C 171.889 82.666,169.050 75.924,174.121 71.255 C 175.884 69.632,178.288 69.403,183.200 70.391 M154.728 107.418 C 156.638 107.758,159.550 108.286,161.200 108.591 C 162.850 108.896,165.190 109.263,166.400 109.406 C 167.610 109.550,169.431 109.905,170.446 110.196 C 171.461 110.487,173.531 110.855,175.046 111.015 C 176.561 111.175,178.250 111.475,178.800 111.682 C 179.350 111.888,181.283 112.226,183.095 112.432 C 184.907 112.639,187.420 113.076,188.679 113.404 C 189.938 113.732,191.612 114.000,192.400 114.000 C 193.188 114.000,194.849 114.265,196.093 114.589 C 198.268 115.156,202.126 115.837,209.820 117.014 C 211.810 117.319,214.503 117.845,215.804 118.184 C 217.104 118.523,218.715 118.797,219.384 118.794 C 220.053 118.790,222.220 119.141,224.200 119.573 C 227.747 120.348,229.229 120.607,236.853 121.788 C 238.972 122.116,241.132 122.545,241.653 122.742 C 242.174 122.940,243.770 123.228,245.200 123.384 C 246.630 123.539,248.790 123.907,250.000 124.200 C 251.210 124.493,253.370 124.854,254.800 125.002 C 256.230 125.149,258.300 125.514,259.400 125.813 C 260.500 126.112,262.480 126.471,263.800 126.610 C 265.120 126.749,266.790 127.044,267.511 127.266 C 268.232 127.488,270.392 127.909,272.311 128.201 C 280.327 129.424,281.970 129.702,285.400 130.410 C 287.380 130.819,289.810 131.259,290.800 131.388 C 296.017 132.067,299.347 134.115,300.016 137.055 C 300.393 138.717,299.921 144.725,299.281 146.400 C 299.071 146.950,298.772 148.570,298.616 150.000 C 298.461 151.430,298.073 153.635,297.756 154.900 C 297.438 156.165,297.010 158.415,296.806 159.900 C 296.361 163.125,295.423 168.665,294.622 172.800 C 293.285 179.703,292.729 182.794,292.213 186.200 C 291.913 188.180,291.491 190.610,291.274 191.600 C 291.057 192.590,290.755 194.468,290.602 195.774 C 290.449 197.080,290.172 198.548,289.986 199.036 C 289.800 199.525,289.451 201.427,289.209 203.262 C 288.017 212.315,284.517 215.441,277.826 213.428 C 276.780 213.113,274.727 212.737,273.262 212.591 C 271.798 212.446,269.610 212.088,268.400 211.797 C 267.190 211.505,265.210 211.147,264.000 211.000 C 262.790 210.853,260.810 210.495,259.600 210.205 C 258.390 209.914,256.500 209.560,255.400 209.417 C 254.300 209.275,252.050 208.906,250.400 208.597 C 248.750 208.288,245.780 207.733,243.800 207.363 C 241.820 206.993,239.120 206.546,237.800 206.370 C 236.480 206.193,234.327 205.768,233.016 205.424 C 231.705 205.081,230.175 204.802,229.616 204.804 C 229.057 204.806,226.800 204.459,224.600 204.033 C 222.400 203.606,218.350 202.871,215.600 202.399 C 212.850 201.927,208.946 201.194,206.925 200.770 C 204.903 200.347,202.679 200.000,201.983 200.000 C 201.286 200.000,199.654 199.725,198.358 199.389 C 197.061 199.053,194.785 198.613,193.300 198.412 C 191.815 198.210,189.250 197.785,187.600 197.467 C 182.718 196.526,177.540 195.636,175.400 195.369 C 174.300 195.232,172.500 194.880,171.400 194.587 C 170.300 194.293,168.230 193.929,166.800 193.777 C 165.370 193.625,163.774 193.340,163.253 193.142 C 162.732 192.945,160.572 192.525,158.453 192.209 C 152.267 191.287,149.235 190.770,145.400 189.983 C 143.420 189.577,140.863 189.139,139.718 189.011 C 134.257 188.398,130.824 184.365,132.011 179.960 C 132.272 178.992,132.736 176.490,133.043 174.400 C 133.844 168.937,134.387 165.762,135.027 162.800 C 135.336 161.370,135.767 158.920,135.985 157.355 C 136.203 155.790,136.656 153.457,136.991 152.171 C 137.326 150.884,137.600 149.092,137.600 148.189 C 137.600 147.285,137.857 145.658,138.172 144.573 C 138.486 143.488,138.862 141.520,139.006 140.200 C 139.151 138.880,139.445 137.170,139.661 136.400 C 139.877 135.630,140.291 133.470,140.582 131.600 C 141.558 125.326,142.442 120.220,143.006 117.600 C 143.314 116.170,143.676 114.251,143.812 113.335 C 144.579 108.153,148.110 106.240,154.728 107.418 " stroke="none" fill="#fc9404" fill-rule="evenodd"></path><path id="path2" d="M147.756 107.677 C 145.798 108.661,144.155 111.019,143.812 113.335 C 143.676 114.251,143.314 116.170,143.006 117.600 C 142.442 120.220,141.558 125.326,140.582 131.600 C 140.291 133.470,139.877 135.630,139.661 136.400 C 139.445 137.170,139.151 138.880,139.006 140.200 C 138.862 141.520,138.486 143.488,138.172 144.573 C 137.857 145.658,137.600 147.285,137.600 148.189 C 137.600 149.092,137.326 150.884,136.991 152.171 C 136.656 153.457,136.203 155.790,135.985 157.355 C 135.767 158.920,135.336 161.370,135.027 162.800 C 134.387 165.762,133.844 168.937,133.043 174.400 C 132.736 176.490,132.272 178.992,132.011 179.960 C 130.824 184.365,134.257 188.398,139.718 189.011 C 140.863 189.139,143.420 189.577,145.400 189.983 C 149.235 190.770,152.267 191.287,158.453 192.209 C 160.572 192.525,162.732 192.945,163.253 193.142 C 163.774 193.340,165.370 193.625,166.800 193.777 C 168.230 193.929,170.300 194.293,171.400 194.587 C 172.500 194.880,174.300 195.232,175.400 195.369 C 177.540 195.636,182.718 196.526,187.600 197.467 C 189.250 197.785,191.815 198.210,193.300 198.412 C 194.785 198.613,197.061 199.053,198.358 199.389 C 199.654 199.725,201.286 200.000,201.983 200.000 C 202.679 200.000,204.903 200.347,206.925 200.770 C 208.946 201.194,212.850 201.927,215.600 202.399 C 218.350 202.871,222.400 203.606,224.600 204.033 C 226.800 204.459,229.057 204.806,229.616 204.804 C 230.175 204.802,231.705 205.081,233.016 205.424 C 234.327 205.768,236.480 206.193,237.800 206.370 C 239.120 206.546,241.820 206.993,243.800 207.363 C 245.780 207.733,248.750 208.288,250.400 208.597 C 252.050 208.906,254.300 209.275,255.400 209.417 C 256.500 209.560,258.390 209.914,259.600 210.205 C 260.810 210.495,262.790 210.853,264.000 211.000 C 265.210 211.147,267.190 211.505,268.400 211.797 C 269.610 212.088,271.798 212.446,273.262 212.591 C 274.727 212.737,276.780 213.113,277.826 213.428 C 284.517 215.441,288.017 212.315,289.209 203.262 C 289.451 201.427,289.800 199.525,289.986 199.036 C 290.172 198.548,290.449 197.080,290.602 195.774 C 290.755 194.468,291.057 192.590,291.274 191.600 C 291.491 190.610,291.913 188.180,292.213 186.200 C 292.729 182.794,293.285 179.703,294.622 172.800 C 295.423 168.665,296.361 163.125,296.806 159.900 C 297.010 158.415,297.438 156.165,297.756 154.900 C 298.073 153.635,298.461 151.430,298.616 150.000 C 298.772 148.570,299.071 146.950,299.281 146.400 C 299.921 144.725,300.393 138.717,300.016 137.055 C 299.347 134.115,296.017 132.067,290.800 131.388 C 289.810 131.259,287.380 130.819,285.400 130.410 C 281.970 129.702,280.327 129.424,272.311 128.201 C 270.392 127.909,268.232 127.488,267.511 127.266 C 266.790 127.044,265.120 126.749,263.800 126.610 C 262.480 126.471,260.500 126.112,259.400 125.813 C 258.300 125.514,256.230 125.149,254.800 125.002 C 253.370 124.854,251.210 124.493,250.000 124.200 C 248.790 123.907,246.630 123.539,245.200 123.384 C 243.770 123.228,242.174 122.940,241.653 122.742 C 241.132 122.545,238.972 122.116,236.853 121.788 C 229.229 120.607,227.747 120.348,224.200 119.573 C 222.220 119.141,220.053 118.790,219.384 118.794 C 218.715 118.797,217.104 118.523,215.804 118.184 C 214.503 117.845,211.810 117.319,209.820 117.014 C 202.126 115.837,198.268 115.156,196.093 114.589 C 194.849 114.265,193.188 114.000,192.400 114.000 C 191.612 114.000,189.938 113.732,188.679 113.404 C 187.420 113.076,184.907 112.639,183.095 112.432 C 181.283 112.226,179.350 111.888,178.800 111.682 C 178.250 111.475,176.561 111.175,175.046 111.015 C 173.531 110.855,171.461 110.487,170.446 110.196 C 169.431 109.905,167.610 109.550,166.400 109.406 C 165.190 109.263,162.850 108.896,161.200 108.591 C 149.870 106.495,150.077 106.509,147.756 107.677 M99.975 246.025 C 99.566 246.434,99.106 247.909,98.841 249.657 C 98.596 251.275,98.127 253.860,97.799 255.400 C 97.471 256.940,97.017 259.550,96.789 261.200 C 96.562 262.850,96.219 264.830,96.027 265.600 C 95.835 266.370,95.569 267.990,95.436 269.200 C 95.304 270.410,94.937 272.570,94.623 274.000 C 92.520 283.548,92.547 285.306,94.800 285.718 C 95.790 285.899,97.680 286.297,99.000 286.602 C 100.320 286.907,102.480 287.264,103.800 287.396 C 105.120 287.528,107.370 287.892,108.800 288.205 C 110.230 288.519,112.390 288.949,113.600 289.160 C 114.810 289.372,116.610 289.728,117.600 289.951 C 118.590 290.174,120.660 290.545,122.200 290.776 C 125.124 291.215,127.758 291.662,131.800 292.405 C 133.120 292.648,135.280 293.024,136.600 293.241 C 137.920 293.458,139.900 293.808,141.000 294.020 C 142.100 294.232,144.260 294.597,145.800 294.831 C 147.340 295.065,149.680 295.512,151.000 295.824 C 152.320 296.136,154.848 296.563,156.617 296.774 C 158.387 296.985,160.305 297.336,160.880 297.554 C 161.455 297.773,163.067 298.067,164.463 298.209 C 165.858 298.350,167.926 298.720,169.058 299.032 C 170.190 299.343,172.744 299.766,174.734 299.972 C 176.724 300.178,178.678 300.514,179.076 300.719 C 179.474 300.923,181.094 301.205,182.675 301.346 C 184.257 301.486,186.057 301.800,186.675 302.043 C 187.294 302.286,189.129 302.640,190.754 302.829 C 192.378 303.018,194.898 303.434,196.354 303.753 C 197.809 304.072,200.350 304.520,202.000 304.749 C 203.650 304.978,205.720 305.342,206.600 305.560 C 207.480 305.777,209.370 306.144,210.800 306.375 C 212.230 306.606,214.390 306.982,215.600 307.211 C 224.360 308.867,226.341 309.201,227.416 309.200 C 228.085 309.200,229.705 309.480,231.016 309.822 C 232.327 310.165,234.824 310.624,236.565 310.843 C 238.305 311.062,240.057 311.416,240.456 311.630 C 240.856 311.844,242.880 312.180,244.955 312.376 C 247.029 312.572,249.058 312.907,249.463 313.121 C 249.869 313.334,251.550 313.639,253.200 313.799 C 254.850 313.959,256.920 314.331,257.800 314.625 C 258.680 314.920,260.660 315.275,262.200 315.415 C 263.740 315.555,265.810 315.908,266.800 316.199 C 267.790 316.491,269.860 316.835,271.400 316.965 C 272.940 317.096,275.010 317.447,276.000 317.748 C 276.990 318.048,279.041 318.424,280.557 318.585 C 282.074 318.745,283.964 319.103,284.757 319.380 C 285.551 319.658,287.472 320.009,289.027 320.160 C 290.583 320.311,292.833 320.694,294.027 321.012 C 295.222 321.330,296.936 321.593,297.836 321.595 C 298.736 321.598,300.356 321.873,301.436 322.208 C 320.799 328.199,337.088 316.408,333.246 299.180 C 332.160 294.305,326.275 286.000,323.907 286.000 C 323.663 286.000,323.179 285.760,322.831 285.466 C 321.870 284.654,317.667 283.300,315.200 283.007 C 313.990 282.864,312.100 282.508,311.000 282.217 C 309.900 281.925,308.010 281.581,306.800 281.452 C 305.590 281.323,303.340 280.958,301.800 280.642 C 295.667 279.380,290.148 278.399,289.184 278.400 C 288.625 278.400,287.095 278.120,285.784 277.778 C 284.473 277.436,282.050 276.987,280.400 276.780 C 278.750 276.573,276.230 276.138,274.800 275.813 C 273.370 275.487,270.940 275.038,269.400 274.813 C 263.641 273.974,258.962 273.163,257.800 272.801 C 257.140 272.596,255.104 272.245,253.275 272.022 C 251.446 271.799,249.764 271.502,249.538 271.361 C 249.311 271.221,247.387 270.876,245.263 270.593 C 243.138 270.311,239.870 269.783,238.000 269.419 C 236.130 269.056,233.250 268.498,231.600 268.178 C 227.095 267.305,221.761 266.413,218.400 265.970 C 216.750 265.753,214.500 265.329,213.400 265.029 C 212.300 264.728,210.258 264.363,208.863 264.217 C 207.467 264.071,205.850 263.771,205.269 263.550 C 204.688 263.329,202.499 262.898,200.406 262.592 C 198.313 262.286,195.655 261.848,194.500 261.618 C 190.471 260.816,188.182 260.392,185.600 259.970 C 184.170 259.736,182.190 259.362,181.200 259.138 C 180.210 258.914,177.600 258.496,175.400 258.208 C 173.200 257.920,170.928 257.498,170.351 257.271 C 169.774 257.044,167.974 256.729,166.351 256.572 C 164.728 256.414,162.751 256.058,161.957 255.780 C 161.164 255.503,159.274 255.155,157.757 255.008 C 156.241 254.861,154.100 254.503,153.000 254.214 C 151.900 253.924,149.863 253.579,148.473 253.447 C 147.083 253.315,145.013 252.949,143.873 252.633 C 142.733 252.318,140.549 251.938,139.020 251.790 C 137.490 251.641,135.780 251.338,135.220 251.118 C 134.659 250.897,132.490 250.475,130.400 250.180 C 128.310 249.886,125.610 249.448,124.400 249.207 C 118.096 247.954,115.102 247.448,112.200 247.143 C 110.440 246.959,108.550 246.626,108.000 246.405 C 105.808 245.522,100.718 245.282,99.975 246.025 M131.200 322.825 C 129.550 323.244,127.554 323.590,126.764 323.593 C 125.974 323.597,124.444 323.870,123.364 324.199 C 122.284 324.528,120.140 324.912,118.600 325.052 C 117.060 325.191,115.243 325.531,114.563 325.806 C 113.882 326.082,112.172 326.430,110.763 326.580 C 109.353 326.730,107.300 327.099,106.200 327.400 C 105.100 327.700,102.766 328.142,101.012 328.381 C 99.259 328.621,97.189 328.976,96.412 329.170 C 95.636 329.365,93.858 329.642,92.463 329.786 C 91.067 329.930,89.455 330.227,88.880 330.446 C 88.305 330.664,86.477 331.014,84.817 331.223 C 80.952 331.710,76.567 333.503,74.544 335.422 C 74.293 335.660,73.573 336.293,72.944 336.828 C 63.938 344.488,64.536 360.232,74.114 367.610 C 75.261 368.494,76.552 369.484,76.981 369.809 C 77.411 370.134,78.046 370.400,78.392 370.400 C 78.739 370.400,79.409 370.671,79.883 371.003 C 81.917 372.428,91.575 372.422,97.426 370.993 C 98.760 370.667,100.481 370.400,101.250 370.400 C 102.020 370.400,103.988 370.060,105.625 369.644 C 107.261 369.228,109.841 368.770,111.358 368.627 C 112.875 368.483,114.457 368.184,114.873 367.961 C 115.289 367.738,117.287 367.372,119.314 367.146 C 121.342 366.920,123.983 366.480,125.184 366.168 C 126.385 365.855,128.095 365.592,128.984 365.582 C 129.873 365.573,131.320 365.304,132.200 364.985 C 133.080 364.665,135.414 364.217,137.387 363.988 C 139.360 363.760,141.752 363.309,142.701 362.986 C 143.651 362.664,145.389 362.400,146.564 362.400 C 147.738 362.400,149.468 362.129,150.407 361.797 C 151.347 361.466,153.394 361.079,154.958 360.937 C 156.521 360.795,158.487 360.440,159.326 360.148 C 160.166 359.856,162.056 359.504,163.526 359.366 C 164.997 359.228,167.100 358.878,168.200 358.588 C 169.300 358.298,171.280 357.948,172.600 357.809 C 173.920 357.670,175.900 357.312,177.000 357.013 C 178.100 356.714,180.170 356.352,181.600 356.208 C 183.030 356.064,185.010 355.700,186.000 355.400 C 186.990 355.100,188.970 354.737,190.400 354.594 C 191.830 354.450,193.990 354.096,195.200 353.806 C 196.410 353.516,198.542 353.161,199.937 353.016 C 201.333 352.870,202.945 352.573,203.520 352.354 C 204.095 352.136,206.013 351.782,207.783 351.567 C 209.552 351.353,211.540 350.990,212.200 350.761 C 212.860 350.532,215.020 350.179,217.000 349.977 C 218.980 349.774,221.320 349.345,222.200 349.022 C 223.080 348.699,224.610 348.423,225.600 348.408 C 226.590 348.393,228.738 348.025,230.373 347.591 C 232.008 347.156,233.988 346.797,234.773 346.793 C 235.558 346.789,237.550 346.432,239.200 346.000 C 240.850 345.568,243.011 345.211,244.001 345.207 C 244.992 345.203,247.061 344.840,248.600 344.400 C 250.139 343.960,252.028 343.598,252.799 343.595 C 257.733 343.575,254.977 342.463,246.800 341.174 C 245.370 340.949,242.670 340.407,240.800 339.972 C 238.930 339.536,236.758 339.184,235.973 339.190 C 235.188 339.195,233.208 338.844,231.573 338.409 C 229.938 337.975,227.864 337.615,226.964 337.609 C 226.064 337.604,224.444 337.332,223.364 337.005 C 222.284 336.677,220.230 336.302,218.800 336.170 C 217.370 336.038,215.390 335.684,214.400 335.382 C 213.410 335.080,211.430 334.721,210.000 334.584 C 208.570 334.447,206.500 334.098,205.400 333.810 C 204.300 333.521,202.197 333.172,200.726 333.034 C 199.256 332.896,197.366 332.543,196.526 332.249 C 195.687 331.955,193.684 331.587,192.075 331.431 C 190.466 331.274,188.486 330.914,187.675 330.631 C 186.864 330.347,184.850 329.988,183.200 329.833 C 181.550 329.678,179.312 329.292,178.227 328.975 C 177.142 328.659,175.600 328.400,174.800 328.400 C 174.000 328.400,172.008 328.044,170.373 327.609 C 168.738 327.175,166.669 326.815,165.775 326.809 C 164.882 326.804,162.812 326.460,161.175 326.044 C 159.539 325.628,157.030 325.176,155.600 325.039 C 154.170 324.902,152.116 324.523,151.036 324.195 C 149.956 323.868,148.336 323.596,147.436 323.591 C 146.536 323.585,144.462 323.225,142.827 322.791 C 139.131 321.808,135.163 321.819,131.200 322.825 " stroke="none" fill="#f4efd1" fill-rule="evenodd"></path></g></svg>