<?xml version="1.0" standalone="no"?>
<!DOCTYPE svg PUBLIC "-//W3C//DTD SVG 20010904//EN"
 "http://www.w3.org/TR/2001/REC-SVG-20010904/DTD/svg10.dtd">
<svg version="1.0" xmlns="http://www.w3.org/2000/svg"
 width="323.000000pt" height="323.000000pt" viewBox="0 0 323.000000 323.000000"
 preserveAspectRatio="xMidYMid meet">
<metadata>
Created by potrace 1.11, written by Peter Selinger 2001-2013
</metadata>
<g transform="translate(0.000000,323.000000) scale(0.100000,-0.100000)"
fill="#000000" stroke="none">
<path d="M1496 2388 c-8 -5 -13 -15 -10 -22 7 -18 -34 -46 -68 -46 -15 0 -33
8 -40 18 -20 28 -52 42 -98 42 -32 0 -51 -8 -83 -33 -23 -19 -56 -42 -74 -52
-31 -18 -33 -18 -88 0 l-55 19 -16 -22 c-13 -18 -18 -20 -34 -9 -16 9 -24 9
-38 -1 -32 -23 -67 -35 -99 -34 -20 0 -33 -5 -33 -13 0 -8 -9 -11 -25 -7 -20
3 -24 1 -19 -12 4 -11 1 -16 -12 -16 -17 0 -16 -3 5 -19 16 -12 20 -21 12 -25
-16 -10 -14 -26 5 -26 8 0 12 -5 8 -11 -4 -7 -21 -9 -46 -5 -33 6 -40 3 -47
-15 -6 -19 -9 -20 -14 -6 -6 17 -50 23 -81 11 -21 -8 -20 -24 2 -25 9 0 1 -5
-18 -11 -19 -5 -56 -8 -83 -4 -47 5 -47 5 -41 -21 7 -25 5 -26 -22 -20 -35 7
-43 2 -67 -35 -10 -16 -26 -28 -36 -28 -10 0 -21 -9 -24 -20 -3 -14 -10 -18
-22 -14 -11 5 -18 0 -22 -15 -3 -12 -13 -21 -24 -21 -29 0 -34 -21 -9 -40 29
-22 21 -51 -11 -43 -25 7 -21 -5 14 -44 15 -17 17 -26 9 -36 -7 -8 -9 -17 -5
-20 11 -12 87 -7 138 9 28 8 64 14 82 12 39 -3 50 6 33 27 -18 22 2 44 24 26
8 -7 21 -11 28 -9 7 2 20 -3 28 -10 8 -7 24 -19 34 -26 24 -16 13 -36 -20 -36
-34 0 -30 -15 12 -40 l35 -22 65 32 c36 17 68 30 71 27 2 -3 -5 -11 -17 -17
-18 -10 -19 -14 -9 -27 30 -35 150 7 157 56 4 26 34 43 69 39 38 -4 39 -24 3
-36 -34 -12 -40 -32 -11 -32 30 0 34 -17 9 -35 -23 -16 -23 -16 -4 -30 27 -21
53 -19 73 5 10 11 21 20 25 20 5 0 8 -9 8 -20 0 -22 20 -26 50 -10 12 7 17 16
13 27 -5 13 -1 15 29 9 26 -5 46 0 82 19 52 28 94 36 61 12 -25 -19 -11 -37
30 -37 59 0 125 37 125 71 0 23 33 41 66 37 34 -4 34 -20 1 -36 -31 -15 -36
-32 -8 -32 30 0 34 -17 9 -35 -23 -16 -23 -16 -4 -30 27 -20 50 -19 71 5 10
11 22 20 27 20 4 0 8 -9 8 -20 0 -11 6 -20 14 -20 28 0 46 12 46 31 0 25 20
24 27 -1 5 -17 13 -19 82 -17 42 1 145 1 229 0 l152 -3 47 -42 c31 -29 57 -67
79 -116 35 -76 64 -99 110 -88 33 9 54 -3 54 -30 0 -33 16 -37 75 -19 28 8 66
15 87 15 34 0 38 -3 58 -47 12 -27 28 -62 36 -78 14 -29 13 -34 -11 -77 -14
-25 -32 -52 -40 -58 -9 -8 -15 -30 -15 -60 0 -83 -63 -112 -220 -100 -73 5
-104 4 -135 -7 -22 -8 -76 -18 -120 -23 -47 -4 134 -8 444 -9 l524 -1 -23 20
c-13 11 -31 20 -41 20 -33 0 -49 38 -42 102 8 77 -9 98 -78 98 -27 0 -51 5
-56 13 -4 6 -10 46 -13 87 l-5 75 -31 3 c-27 3 -34 11 -60 64 -36 75 -61 88
-174 88 -61 0 -80 3 -80 14 0 7 47 62 104 122 74 79 118 116 155 134 49 23 55
23 109 10 73 -17 172 -24 172 -13 0 5 -5 14 -12 21 -9 9 -9 18 0 37 16 35 15
38 -8 32 -15 -4 -20 0 -20 14 0 12 15 26 42 40 38 19 40 23 24 34 -9 7 -25 11
-36 8 -14 -4 -40 15 -92 66 -65 64 -76 71 -102 65 -27 -6 -28 -5 -22 19 6 26
6 26 -46 20 -29 -3 -55 -10 -56 -15 -8 -19 -35 -38 -54 -38 -11 0 -27 -8 -34
-17 -12 -17 -13 -16 -14 4 0 13 -11 29 -30 40 -21 12 -30 25 -30 43 0 15 -6
35 -14 45 -12 17 -17 18 -41 7 -22 -10 -30 -10 -43 0 -12 10 -16 10 -19 0 -7
-20 -23 -3 -23 24 0 21 -3 23 -19 14 -29 -15 -31 -13 -31 26 l0 35 -42 -3
c-48 -3 -66 -31 -29 -43 27 -8 27 -25 1 -25 -11 0 -20 6 -20 14 0 7 -7 19 -15
26 -29 24 -18 40 30 40 59 0 59 18 3 75 -24 23 -51 51 -61 62 -14 17 -29 20
-90 18 -78 -1 -101 -9 -93 -31 7 -19 -33 -44 -72 -44 -25 0 -35 5 -39 19 -6
24 -44 41 -94 41 -30 0 -50 -8 -81 -32 l-40 -33 -16 21 c-10 12 -22 30 -27 39
-9 14 -26 18 -87 20 -42 1 -83 -2 -92 -7z m694 -183 c25 -30 -6 -44 -57 -24
l-28 11 30 13 c39 17 40 17 55 0z m18 -192 c-2 -13 -14 -19 -41 -21 -41 -4
-50 13 -14 28 37 15 59 12 55 -7z m-154 -158 c9 -18 16 -44 16 -57 -1 -21 -2
-22 -14 -5 -29 37 -24 14 10 -54 27 -54 33 -74 24 -83 -9 -8 -18 -2 -38 23
-15 19 -44 55 -64 79 -39 44 -46 66 -28 77 6 4 8 10 5 15 -6 10 14 50 30 62
13 9 40 -17 59 -57z m293 14 c3 -35 17 -42 59 -29 37 13 39 12 68 -22 39 -44
58 -51 107 -37 30 10 42 9 54 -1 12 -10 19 -10 27 -2 14 14 48 16 48 4 0 -4
-23 -30 -51 -57 -28 -27 -69 -76 -92 -109 -46 -69 -66 -91 -73 -83 -3 3 -1 14
5 25 19 35 12 34 -35 -4 l-46 -38 -27 33 c-14 18 -50 57 -78 86 -44 44 -53 59
-53 88 0 27 7 41 30 60 24 21 30 33 30 66 0 43 24 60 27 20z m-203 -117 c-4
-37 -8 -69 -10 -70 -1 -2 -10 8 -20 23 -19 29 -31 123 -19 152 6 16 9 15 31
-10 22 -26 24 -34 18 -95z m714 90 c4 -14 -34 -16 -42 -3 -6 10 13 21 28 17 6
-1 12 -8 14 -14z m-639 -6 c9 -11 10 -25 2 -53 -6 -21 -11 -60 -11 -88 l0 -49
-22 21 c-16 16 -23 38 -26 81 -6 84 23 129 57 88z m-251 -85 c45 -54 50 -64
27 -55 -17 7 -21 -11 -5 -21 17 -10 11 -25 -10 -25 -12 0 -30 16 -47 41 -16
23 -32 49 -38 57 -7 10 -6 16 3 19 6 3 12 11 12 19 0 25 16 15 58 -35z m820
21 c2 -7 -5 -15 -15 -19 -10 -4 -46 -29 -80 -56 -84 -65 -80 -44 5 32 65 59
82 67 90 43z m-878 -99 c0 -13 -2 -23 -5 -23 -21 0 -66 35 -89 70 -25 38 -26
41 -7 35 11 -3 28 -2 38 4 14 7 22 2 40 -27 12 -21 23 -47 23 -59z m-143 61
c14 -14 23 -27 21 -30 -10 -9 -118 19 -118 32 0 32 64 31 97 -2z m30 -55 c17
-6 37 -17 43 -25 20 -23 -111 -20 -140 4 -46 38 5 48 97 21z m545 -111 c-6 -6
3 -22 26 -43 34 -31 36 -35 23 -58 -11 -20 -18 -24 -35 -18 -30 12 -73 88 -82
145 l-7 50 42 -33 c27 -22 39 -37 33 -43z"/>
</g>
</svg>
