<?xml version="1.0" standalone="no"?>
<!DOCTYPE svg PUBLIC "-//W3C//DTD SVG 20010904//EN"
 "http://www.w3.org/TR/2001/REC-SVG-20010904/DTD/svg10.dtd">
<svg version="1.0" xmlns="http://www.w3.org/2000/svg"
 width="256.000000pt" height="256.000000pt" viewBox="0 0 256.000000 256.000000"
 preserveAspectRatio="xMidYMid meet">
<metadata>
Created by potrace 1.11, written by Peter Selinger 2001-2013
</metadata>
<g transform="translate(0.000000,256.000000) scale(0.100000,-0.100000)"
fill="#000000" stroke="none">
<path d="M843 2545 c-28 -20 -36 -46 -74 -266 l-32 -186 -246 -43 c-135 -24
-265 -50 -288 -57 -57 -20 -138 -94 -170 -157 -47 -94 -46 -103 91 -886 70
-393 134 -735 143 -760 23 -62 113 -150 178 -173 28 -9 77 -17 110 -17 75 0
1455 244 1484 262 12 7 23 20 26 29 3 8 31 26 62 39 67 28 130 87 160 150 11
25 26 81 33 125 7 44 14 89 16 100 4 21 50 277 58 330 3 17 26 145 51 285 26
140 48 269 51 285 3 17 9 53 15 80 5 28 12 66 15 85 3 19 10 60 15 90 18 93
22 186 9 227 -37 116 -120 194 -241 226 -86 23 -1367 247 -1410 247 -19 0 -44
-7 -56 -15z"/>
</g>
</svg>
