<?xml version="1.0" standalone="no"?>
<!DOCTYPE svg PUBLIC "-//W3C//DTD SVG 20010904//EN"
 "http://www.w3.org/TR/2001/REC-SVG-20010904/DTD/svg10.dtd">
<svg version="1.0" xmlns="http://www.w3.org/2000/svg"
 width="323.000000pt" height="177.000000pt" viewBox="0 0 323.000000 177.000000"
 preserveAspectRatio="xMidYMid meet">

<g transform="translate(0.000000,177.000000) scale(0.100000,-0.100000)"
fill="#000000" stroke="none">
<path d="M1497 1658 c-9 -5 -14 -15 -11 -22 7 -18 -34 -46 -68 -46 -15 0 -33
8 -40 18 -20 28 -52 42 -98 42 -33 0 -50 -7 -80 -32 -21 -18 -54 -42 -74 -52
-35 -19 -37 -19 -91 -1 l-55 19 -16 -22 c-13 -18 -18 -20 -34 -9 -16 9 -24 9
-38 -1 -32 -23 -67 -35 -99 -34 -20 0 -33 -5 -33 -13 0 -8 -9 -11 -25 -7 -20
3 -24 1 -19 -12 4 -11 1 -16 -12 -16 -17 0 -16 -3 5 -19 18 -14 21 -20 11 -26
-10 -6 -9 -11 4 -21 24 -17 3 -28 -40 -20 -29 6 -35 4 -42 -15 -7 -19 -10 -20
-15 -6 -6 17 -50 23 -81 11 -21 -8 -20 -24 2 -25 9 0 1 -5 -18 -11 -19 -5 -56
-8 -83 -4 -47 5 -47 5 -41 -21 7 -25 5 -26 -22 -20 -35 7 -43 2 -67 -35 -10
-16 -26 -28 -36 -28 -10 0 -21 -9 -24 -20 -3 -14 -10 -18 -22 -14 -11 5 -18 0
-22 -14 -3 -12 -14 -22 -26 -24 -30 -4 -32 -26 -3 -39 20 -9 23 -15 16 -30 -7
-12 -17 -15 -32 -11 -22 5 -22 4 5 -32 21 -27 26 -40 18 -50 -6 -7 -8 -16 -4
-19 11 -12 87 -7 138 9 28 8 64 14 82 12 39 -3 50 6 33 27 -18 22 2 44 24 26
8 -7 21 -11 28 -9 7 2 20 -3 28 -10 8 -7 24 -19 34 -26 24 -16 13 -36 -20 -36
-34 0 -30 -15 12 -40 l35 -22 63 31 c67 33 93 40 62 16 -11 -9 -16 -20 -12
-31 5 -13 15 -16 52 -11 53 6 98 34 102 66 4 26 34 43 69 39 38 -4 39 -24 3
-36 -34 -12 -40 -32 -11 -32 30 0 34 -17 9 -35 -23 -16 -23 -16 -4 -30 27 -21
53 -19 73 5 22 25 33 25 33 0 0 -11 7 -20 16 -20 26 0 54 20 48 34 -4 11 5 14
38 14 27 -1 56 7 78 20 19 12 44 22 54 22 19 0 19 0 1 -13 -43 -32 24 -48 95
-23 24 9 41 25 56 52 18 35 24 39 57 39 45 0 51 -15 14 -33 -31 -15 -36 -32
-8 -32 30 0 34 -17 9 -35 -23 -16 -23 -16 -4 -30 27 -20 50 -19 71 5 10 11 22
20 27 20 4 0 8 -9 8 -20 0 -11 6 -20 14 -20 28 0 46 12 46 31 0 25 20 24 27
-1 5 -17 13 -19 82 -17 42 1 145 1 229 0 l152 -3 47 -42 c31 -29 57 -67 79
-116 35 -76 64 -99 110 -88 30 8 54 -2 54 -23 1 -39 14 -44 73 -27 30 9 71 16
90 16 32 0 37 -4 57 -47 12 -27 28 -62 36 -79 14 -28 14 -33 -7 -70 -13 -21
-31 -50 -41 -63 -11 -14 -18 -41 -18 -66 0 -78 -65 -107 -216 -95 -77 6 -108
4 -139 -7 -22 -8 -76 -18 -120 -23 -47 -4 134 -8 444 -9 l524 -1 -23 20 c-13
11 -31 20 -41 20 -33 0 -49 38 -42 102 8 76 -9 98 -77 98 -27 0 -52 6 -58 13
-6 7 -12 46 -14 87 l-3 75 -32 3 c-27 3 -35 10 -61 66 -36 76 -57 86 -173 86
-60 0 -79 3 -79 14 0 7 46 61 101 120 141 148 200 176 299 141 45 -16 140 -21
140 -7 0 4 -5 13 -12 20 -9 9 -9 18 0 37 16 35 15 38 -8 32 -36 -9 -24 31 15
50 49 23 46 50 -4 43 -16 -2 -81 49 -129 102 -30 34 -39 38 -65 32 -28 -6 -29
-5 -23 19 6 26 6 26 -46 20 -29 -3 -55 -10 -56 -15 -8 -19 -35 -38 -54 -38
-11 0 -27 -8 -34 -17 -12 -17 -13 -16 -14 4 0 13 -11 29 -29 39 -21 13 -31 27
-35 56 -7 43 -24 55 -56 38 -16 -8 -25 -8 -35 0 -9 8 -15 8 -20 0 -10 -16 -25
-1 -25 26 0 21 -3 23 -19 14 -29 -15 -31 -13 -31 26 l0 35 -42 -3 c-48 -3 -66
-31 -29 -43 27 -8 27 -25 1 -25 -11 0 -20 6 -20 14 0 7 -7 19 -15 26 -29 24
-18 40 30 40 62 0 59 16 -16 92 l-61 62 -67 1 c-72 2 -106 -9 -97 -30 7 -20
-32 -45 -72 -45 -25 0 -35 5 -39 19 -6 25 -44 41 -98 41 -35 0 -48 -5 -64 -26
-12 -15 -21 -23 -21 -19 0 4 -7 2 -15 -5 -18 -15 -40 -1 -50 30 -3 11 -16 22
-28 26 -33 10 -143 12 -160 2z m693 -183 c25 -30 -7 -44 -57 -24 l-28 11 30
14 c38 17 40 17 55 -1z m18 -192 c-2 -13 -14 -19 -41 -21 -41 -4 -50 13 -14
28 37 15 59 12 55 -7z m-154 -158 c9 -18 16 -44 16 -57 -1 -21 -2 -22 -14 -5
-29 37 -24 14 10 -54 27 -54 33 -74 24 -83 -9 -8 -18 -2 -38 23 -15 19 -44 55
-64 79 -39 44 -46 66 -28 77 6 4 8 10 5 15 -6 10 14 50 30 62 13 9 40 -17 59
-57z m293 14 c3 -35 17 -42 59 -29 37 13 39 12 68 -22 39 -44 58 -51 107 -37
30 10 42 9 54 -1 12 -10 19 -10 27 -2 14 14 48 16 48 4 0 -4 -23 -30 -51 -57
-28 -27 -69 -76 -92 -109 -46 -69 -66 -91 -73 -83 -3 3 -1 14 5 25 19 35 12
34 -35 -4 l-46 -38 -27 33 c-14 18 -50 57 -78 86 -44 44 -53 59 -53 88 0 27 7
41 30 60 24 21 30 33 30 66 0 43 24 60 27 20z m-203 -117 c-4 -37 -8 -69 -10
-70 -1 -2 -10 8 -20 23 -19 29 -31 123 -19 152 6 16 9 15 31 -10 22 -26 24
-34 18 -95z m714 90 c4 -14 -34 -16 -42 -3 -6 10 13 21 28 17 6 -1 12 -8 14
-14z m-638 -2 c12 -7 13 -16 2 -55 -7 -25 -12 -66 -12 -92 l0 -47 -22 21 c-16
16 -23 38 -26 81 -6 83 16 119 58 92z m-245 -96 c36 -43 43 -55 27 -50 -22 7
-31 -7 -12 -19 17 -10 11 -25 -10 -25 -12 0 -30 16 -47 41 -16 23 -32 49 -38
57 -7 10 -6 16 3 19 6 3 12 11 12 19 0 25 15 15 65 -42z m813 28 c2 -7 -5 -15
-15 -19 -10 -4 -46 -29 -80 -56 -84 -65 -80 -44 4 32 66 59 83 67 91 43z
m-878 -99 c0 -13 -2 -23 -5 -23 -20 0 -67 35 -82 60 -9 16 -21 30 -25 30 -4 0
-8 5 -8 11 0 6 9 8 20 4 11 -3 27 -2 37 4 14 7 22 2 40 -27 12 -21 23 -47 23
-59z m-143 61 c14 -14 23 -27 21 -30 -10 -9 -118 19 -118 32 0 32 64 31 97 -2z
m30 -55 c17 -6 37 -17 43 -25 20 -23 -111 -20 -140 4 -46 38 5 48 97 21z m545
-111 c-6 -6 3 -22 26 -43 34 -31 36 -35 23 -58 -11 -20 -18 -24 -35 -18 -30
12 -75 91 -83 147 l-6 48 42 -33 c27 -21 39 -37 33 -43z"/>
</g>
</svg>
